<?xml version="1.0" encoding="utf-8"?>
<!-- Generator: Adobe Illustrator 15.1.0, SVG Export Plug-In  -->
<!DOCTYPE svg PUBLIC "-//W3C//DTD SVG 1.1//EN" "http://www.w3.org/Graphics/SVG/1.1/DTD/svg11.dtd" [
	<!ENTITY ns_flows "http://ns.adobe.com/Flows/1.0/">
]>
<svg version="1.1"
	 xmlns="http://www.w3.org/2000/svg" xmlns:xlink="http://www.w3.org/1999/xlink" xmlns:a="http://ns.adobe.com/AdobeSVGViewerExtensions/3.0/"
	 x="0px" y="0px" width="135px" height="99px" viewBox="85.984 312 135 99" enable-background="new 85.984 312 135 99"
	 xml:space="preserve">
<defs>
</defs>
<rect display="none" fill="#7E8F92" width="841.89" height="595.28"/>
<path display="none" fill="#A0522C" d="M624.318,343c-2,44-48.667,85.333-180,104.667c-105.185,15.484-298-20.667-310.667-94
	c-7.157-41.435,109.141-110.851,248-116.667C508.984,231.667,626.74,289.717,624.318,343z"/>
<path display="none" fill="#996632" d="M654.318,339.667c33.74,48.287-79.251,175.912-260.066,164.343
	c-149.673-9.577-274.02-62.086-291.268-137.676C80.318,267,235.346,262.142,374.077,259.092
	C510.57,256.092,599.065,260.592,654.318,339.667z"/>
<path display="none" fill="#659A41" d="M175.141,390.294c7.913,6.369,18.067,8.072,27.141,5.479
	c0.599-9.418-3.225-18.979-11.137-25.353c-7.911-6.371-18.065-8.07-27.143-5.481C163.404,374.362,167.229,383.919,175.141,390.294z"
	/>
<g display="none">
	<path display="inline" fill="#FFF9EA" d="M554.1,289.619c5.545,1.884,11.031,3.998,16.256,6.708
		c2.599,1.373,5.14,2.896,7.449,4.768c1.15,0.94,2.243,1.972,3.181,3.159c0.934,1.183,1.717,2.551,2.063,4.091
		c0.354,1.534,0.171,3.207-0.466,4.641c-0.303,0.726-0.732,1.392-1.111,1.997c-0.409,0.632-0.821,1.251-1.258,1.852
		c-1.734,2.418-3.713,4.648-5.832,6.723c-4.247,4.146-9.02,7.703-14.019,10.851c-5.018,3.128-10.305,5.773-15.661,8.22
		c-5.367,2.432-10.85,4.588-16.397,6.544c-11.1,3.906-22.455,7.012-33.914,9.592c-22.933,5.136-46.27,8.199-69.663,10.008
		c-23.403,1.786-46.889,2.272-70.341,1.788c-11.722-0.263-23.455-0.656-35.165-1.609c-11.705-0.938-23.373-2.344-34.963-4.236
		c-23.179-3.784-46.052-9.516-68.22-17.299c-22.162-7.783-43.637-17.597-63.854-29.592c-10.017-6.146-19.704-12.83-28.886-20.149
		c-4.588-3.662-9.046-7.486-13.312-11.515c-4.253-4.037-8.353-8.257-11.968-12.871c3.745,4.509,7.953,8.6,12.306,12.503
		c4.366,3.894,8.915,7.577,13.586,11.093c9.348,7.025,19.171,13.397,29.295,19.221c20.092,11.92,41.45,21.682,63.496,29.423
		c22.052,7.743,44.812,13.447,67.88,17.213c11.535,1.884,23.149,3.282,34.801,4.216c11.647,0.948,23.345,1.342,35.046,1.604
		c23.396,0.482,46.819-0.003,70.146-1.783c23.317-1.803,46.567-4.856,69.378-9.965c11.396-2.566,22.682-5.653,33.688-9.526
		c10.994-3.875,21.746-8.546,31.673-14.589c4.971-2.989,9.755-6.323,14.001-10.26c2.122-1.965,4.104-4.081,5.849-6.378
		c0.44-0.572,0.856-1.162,1.26-1.748c0.414-0.624,0.797-1.185,1.076-1.806c0.583-1.23,0.771-2.609,0.507-3.942
		c-0.261-1.336-0.925-2.602-1.771-3.733c-0.848-1.137-1.869-2.159-2.96-3.102c-2.193-1.882-4.661-3.457-7.199-4.888
		C564.986,293.98,559.578,291.685,554.1,289.619z"/>
</g>
<g display="none">
	<path display="inline" fill="#FFF9EA" d="M438.143,389.932c-1.535,2.379-3.587,4.459-5.808,6.329
		c-2.253,1.833-4.709,3.429-7.25,4.861c-5.102,2.849-10.562,4.972-16.094,6.702c-11.34,2.097-22.688,2.967-34,3.181
		c-22.625,0.37-45.091-1.633-67.312-5.028c-22.21-3.473-44.223-8.352-65.693-15.45c-10.719-3.59-21.317-7.725-31.498-13.11
		c-4.745-3.326-9.367-6.896-13.432-11.087c-2.02-2.102-3.914-4.335-5.531-6.752c-1.58-2.435-2.926-5.041-3.625-7.784
		c1.547,2.361,3.44,4.364,5.534,6.103c2.067,1.761,4.308,3.287,6.635,4.66c4.652,2.747,9.58,5,14.648,6.916
		c9.512,5.036,19.729,9.042,30.114,12.517c20.827,6.89,42.447,11.692,64.223,15.094c21.786,3.333,43.846,5.287,65.768,4.924
		c5.476-0.103,10.939-0.367,16.361-0.849c2.71-0.241,5.411-0.538,8.093-0.901c1.34-0.188,2.681-0.36,4.003-0.632
		c1.321-0.277,2.625-0.61,3.969-0.722c5.387-0.411,10.75-1.107,16.003-2.373c2.625-0.634,5.216-1.437,7.715-2.508
		C433.491,392.991,435.898,391.648,438.143,389.932z"/>
</g>
<g display="none">
	<path display="inline" fill="#FFF9EA" d="M157.222,366.107c-0.539-2.394-0.916-4.83-1.17-7.302
		c-0.222-2.472-0.289-4.979-0.165-7.503c0.256-5.043,1.371-10.132,3.254-14.961c4.63-9.285,11.749-16.879,19.56-23.104
		c7.848-6.249,16.436-11.315,25.247-15.76c4.429-2.208,8.844-4.297,13.498-6.173c4.615-1.857,9.324-3.455,14.09-4.83
		c19.093-5.465,38.965-7.421,58.665-6.941c9.859,0.262,19.703,1.146,29.46,2.787c4.798,1.285,9.555,2.719,14.184,4.511
		c4.587,1.829,9.233,3.818,13.105,6.888c-2.22-1.037-4.538-1.737-6.882-2.32c-2.339-0.596-4.704-1.07-7.082-1.465
		c-4.752-0.792-9.533-1.358-14.326-1.698c-9.436-1.588-19.023-2.451-28.615-2.705c-19.172-0.471-38.488,1.449-56.848,6.708
		c-4.583,1.322-9.1,2.855-13.512,4.631c-4.373,1.76-8.763,3.833-13.041,5.966c-8.551,4.312-16.811,9.202-24.198,15.088
		c-7.343,5.876-13.884,12.832-17.865,21.087c-2.419,3.899-4.243,8.207-5.434,12.786
		C157.935,356.374,157.402,361.209,157.222,366.107z"/>
</g>
<g display="none">
	<path display="inline" fill="#FFF9EA" d="M518.907,254.149c6.169,4.193,12.479,8.148,18.88,11.936
		c6.376,3.825,12.848,7.479,19.368,11.062l19.6,10.77c6.526,3.65,13.097,7.308,19.458,11.48c3.151,2.13,6.156,4.505,9.124,6.967
		c2.959,2.473,5.864,5.074,8.558,7.965c2.692,2.886,5.192,6.049,7.276,9.556c2.083,3.501,3.721,7.361,4.681,11.409
		c0.477,2.021,0.8,4.081,0.949,6.144c0.076,1.055,0.113,2.012,0.113,3.145l-0.022,1.405l-0.068,1.565
		c-0.237,4.027-0.951,8.021-2.079,11.867c-2.258,7.712-6.133,14.778-10.831,21.024c-4.704,6.265-10.212,11.778-16.101,16.719
		c-5.898,4.938-12.19,9.313-18.694,13.272c-13.03,7.896-26.876,14.172-41.026,19.411c-14.163,5.229-28.663,9.404-43.319,12.784
		c-14.659,3.377-29.481,5.951-44.38,7.847c-29.803,3.772-59.887,4.882-89.871,3.615c-29.977-1.294-59.875-4.956-89.232-11.4
		c-14.673-3.235-29.209-7.179-43.475-12.029c-7.132-2.426-14.194-5.083-21.154-8.016c-3.482-1.463-6.927-3.016-10.368-4.591
		c-3.446-1.561-6.869-3.199-10.14-5.127c-6.553-3.827-12.924-7.99-18.975-12.597c-6.039-4.613-11.799-9.646-16.883-15.329
		c-5.081-5.664-9.558-11.952-12.707-18.884c-3.126-6.922-4.797-14.516-4.398-21.976c0.357,7.467,2.748,14.638,6.402,20.955
		c3.627,6.356,8.42,11.954,13.753,16.914c10.721,9.916,23.379,17.549,36.545,23.885c3.306,1.567,6.549,3.257,9.839,4.871
		c3.295,1.604,6.657,3.075,10.038,4.506c6.767,2.852,13.655,5.443,20.625,7.814c13.942,4.74,28.202,8.611,42.619,11.789
		c28.847,6.334,58.312,9.947,87.853,11.222c29.54,1.248,59.209,0.152,88.521-3.56c14.654-1.863,29.22-4.396,43.593-7.706
		c14.369-3.313,28.554-7.402,42.342-12.492c13.774-5.098,27.185-11.19,39.644-18.743c6.217-3.784,12.187-7.941,17.711-12.568
		c5.518-4.625,10.597-9.732,14.841-15.387c4.244-5.642,7.62-11.866,9.553-18.472c0.967-3.299,1.569-6.684,1.771-10.093l0.056-1.225
		l0.022-1.388c-0.002-0.729-0.031-1.634-0.092-2.437c-0.119-1.651-0.377-3.281-0.754-4.884c-1.498-6.427-5.241-12.261-10.021-17.358
		c-2.395-2.551-5.017-4.965-7.811-7.221c-2.789-2.264-5.765-4.336-8.713-6.48c-11.679-8.79-24.351-16.745-36.71-25.121
		c-6.182-4.197-12.323-8.472-18.346-12.903C530.471,263.598,524.596,258.973,518.907,254.149z"/>
</g>
<g display="none">
	<path display="inline" fill="#FFF9EA" d="M573.786,385.759c-14.355,9.853-30.228,17.499-46.528,23.846
		c-16.573,5.61-33.54,9.935-50.682,13.237c-34.3,6.578-69.264,9.212-104.123,8.692c-34.853-0.561-69.731-4.123-103.823-11.771
		c-17.031-3.851-33.863-8.75-50.169-15.165c-15.981-7.139-31.453-15.743-44.81-26.931c14.539,9.555,30.391,16.644,46.648,22.272
		c16.005,6.313,32.609,11.139,49.432,14.946c33.683,7.558,68.251,11.095,102.798,11.648c34.55,0.517,69.19-2.098,103.102-8.603
		c16.941-3.276,33.708-7.508,50.005-13.089C542.166,399.97,558.376,393.821,573.786,385.759z"/>
</g>
<g display="none">
	<path display="inline" fill="#FFF9EA" d="M226.984,247c-14.26,13.388-28.991,26.286-43.262,39.439
		c-3.77,3.047-7.429,6.215-11.011,9.452c-3.585,3.231-7.097,6.529-10.486,9.927c-6.76,6.795-13.099,13.994-18.132,21.904
		c-5.023,7.879-8.619,16.596-9.255,25.635c-0.688,9.005,1.575,18.2,5.804,26.348c4.237,8.189,10.426,15.393,17.466,21.652
		c7.063,6.267,14.99,11.645,23.288,16.4c16.647,9.485,34.71,16.592,53.106,22.479c18.429,5.86,37.293,10.444,56.322,14.186
		c9.517,1.868,19.08,3.516,28.675,4.971c4.797,0.729,9.603,1.407,14.415,2.039c2.406,0.32,4.813,0.626,7.229,0.863
		c2.416,0.233,4.822,0.549,7.216,0.979c19.186,3.184,38.519,5.661,57.958,7.727c-19.544,0.655-39.139,0.215-58.719-0.936
		c-4.909-0.191-9.729-1.147-14.597-1.692c-4.857-0.639-9.708-1.323-14.553-2.059c-9.689-1.469-19.351-3.134-28.974-5.022
		c-19.242-3.783-38.347-8.423-57.099-14.385c-18.722-5.997-37.181-13.234-54.459-23.075c-8.614-4.938-16.924-10.559-24.46-17.242
		c-7.505-6.678-14.281-14.495-19.032-23.665c-4.734-9.122-7.362-19.585-6.569-30.084c0.381-5.225,1.591-10.358,3.406-15.192
		c1.816-4.841,4.202-9.397,6.919-13.675c5.455-8.563,12.109-16.077,19.087-23.098c3.499-3.507,7.099-6.887,10.757-10.185
		c3.665-3.29,7.383-6.502,11.07-9.74c1.858-1.602,3.87-3.017,5.841-4.475l5.948-4.319c3.978-2.857,7.952-5.705,11.961-8.503
		l12.043-8.361L226.984,247z"/>
</g>
<g display="none">
	<path display="inline" fill="#CD6632" d="M152.145,239.4c-1.485,4.964-2.831,9.966-4.01,15.002
		c-1.197,5.031-2.234,10.095-3.057,15.189c-1.655,10.182-2.473,20.491-2.123,30.731c0.135,5.115,0.384,10.233,1.135,15.293
		c0.719,5.059,1.785,10.065,3.24,14.955c2.893,9.785,7.38,19.081,13.265,27.413c5.876,8.344,13.098,15.713,21.12,22.063
		c8.024,6.363,16.825,11.738,26,16.357c18.394,9.228,38.175,15.502,58.179,20.549c10.016,2.521,20.12,4.716,30.253,6.835
		c10.134,2.142,20.267,4.149,30.453,5.979c20.36,3.673,40.836,6.698,61.365,9.356c20.529,2.673,41.116,4.947,61.693,7.493
		c10.259,1.515,20.512,3.112,30.723,4.955c10.21,1.834,20.378,3.957,30.385,6.659c-20.303-4.2-40.88-6.548-61.478-8.638
		c-20.545-2.541-41.147-4.818-61.708-7.495c-20.563-2.662-41.091-5.694-61.512-9.379c-10.207-1.832-20.399-3.852-30.536-5.994
		c-10.146-2.121-20.292-4.325-30.37-6.862c-20.128-5.08-40.106-11.404-58.795-20.778c-9.323-4.693-18.298-10.171-26.516-16.687
		c-8.213-6.502-15.647-14.079-21.708-22.687c-6.07-8.593-10.708-18.201-13.688-28.286c-2.985-10.087-4.412-20.593-4.523-31.065
		c0.092-10.484,1.44-20.882,3.574-31.061c1.069-5.092,2.345-10.132,3.783-15.119C148.755,249.199,150.382,244.272,152.145,239.4z"/>
</g>
<g display="none">
	<path display="inline" fill="#CD6632" d="M151.651,242c-3.925,9.347-7.038,19.056-8.852,29.019
		c-1.817,9.95-2.291,20.165-0.982,30.173c0.64,5.001,1.664,9.954,3.151,14.772c1.486,4.817,3.402,9.502,5.705,13.988
		c4.599,8.985,10.713,17.151,17.717,24.421c7.01,7.279,14.891,13.694,23.227,19.414c8.344,5.72,17.15,10.757,26.207,15.273
		c18.135,9.021,37.228,16.023,56.642,21.789c9.714,2.877,19.523,5.433,29.396,7.715c9.871,2.283,19.821,4.25,29.759,6.26
		c19.887,3.975,39.831,7.658,59.808,11.154l59.977,10.28c19.956,3.641,39.89,7.513,59.578,12.408
		c-19.767-4.571-39.753-8.062-59.752-11.414l-59.976-10.29c-19.983-3.496-39.936-7.182-59.832-11.158
		c-9.942-2.011-19.895-3.978-29.788-6.266c-9.89-2.287-19.719-4.848-29.454-7.73c-19.458-5.779-38.601-12.798-56.805-21.854
		c-9.092-4.533-17.937-9.592-26.326-15.343c-8.382-5.751-16.315-12.208-23.382-19.546c-7.061-7.328-13.236-15.573-17.887-24.658
		c-4.649-9.071-7.761-18.962-8.946-29.097c-1.159-10.143-0.509-20.425,1.478-30.385C144.298,260.952,147.576,251.282,151.651,242z"
		/>
</g>
<g display="none">
	<path display="inline" fill="#CD6632" d="M150.318,245c-3.272,9.491-5.835,19.241-7.311,29.165
		c-1.475,9.915-1.843,20.014-0.712,29.962c1.081,9.945,3.664,19.735,7.802,28.847c4.116,9.122,9.729,17.537,16.347,25.041
		c6.618,7.516,14.211,14.143,22.331,20.004c8.127,5.865,16.786,10.976,25.724,15.512c17.902,9.063,36.868,15.885,56.129,21.476
		c19.279,5.592,38.917,9.857,58.611,13.754c19.699,3.886,39.505,7.22,59.378,10.091c19.871,2.896,39.813,5.275,59.733,7.873
		c19.899,2.701,39.793,5.79,59.301,10.61c-19.567-4.583-39.485-7.333-59.398-9.866c-19.912-2.597-39.861-4.978-59.743-7.875
		c-19.884-2.872-39.704-6.209-59.416-10.097c-19.704-3.899-39.363-8.169-58.675-13.77c-19.293-5.601-38.3-12.436-56.26-21.527
		c-8.967-4.551-17.659-9.681-25.824-15.572c-8.158-5.889-15.793-12.552-22.455-20.117c-6.661-7.553-12.318-16.031-16.468-25.228
		c-4.162-9.186-6.799-19.053-7.842-29.077c-1.019-10.034-0.523-20.173,1.076-30.096C144.247,264.178,146.931,254.451,150.318,245z"
		/>
</g>
<g display="none">
	<path display="inline" fill="#B55535" d="M504.782,278.361c1.596-0.12,3.195,0.052,4.784,0.202c1.59,0.167,3.174,0.38,4.755,0.616
		c3.161,0.475,6.309,1.041,9.444,1.663c6.269,1.264,12.493,2.751,18.66,4.461c6.165,1.718,12.279,3.654,18.263,5.992
		c2.99,1.172,5.947,2.449,8.832,3.905c2.875,1.469,5.712,3.077,8.294,5.137c1.283,1.036,2.509,2.181,3.562,3.527
		c1.047,1.336,1.919,2.938,2.208,4.752c0.315,1.814-0.128,3.722-0.985,5.26c-0.863,1.477-1.794,2.78-2.8,4.079
		c-4.035,5.148-9.027,9.386-14.303,13.086c-10.623,7.365-22.426,12.703-34.443,17.142c-12.051,4.409-24.427,7.833-36.92,10.638
		c-12.499,2.8-25.129,4.961-37.813,6.658c-25.375,3.38-50.96,4.914-76.534,5.21c-12.789,0.14-25.58-0.039-38.358-0.499
		c-12.778-0.421-25.574-1.328-38.284-2.829c-25.428-2.988-50.605-8.248-75.039-15.935c-24.426-7.685-48.128-17.766-70.42-30.409
		c-11.056-6.473-21.745-13.575-31.864-21.414c-5.055-3.923-9.969-8.03-14.662-12.376c-4.679-4.354-9.191-8.916-13.142-13.94
		c4.08,4.918,8.699,9.349,13.477,13.569c4.791,4.21,9.793,8.174,14.929,11.949c10.28,7.542,21.096,14.329,32.249,20.473
		c22.157,12.567,45.732,22.596,70.033,30.24c24.308,7.647,49.362,12.882,74.672,15.856c12.661,1.494,25.369,2.396,38.122,2.816
		c12.75,0.459,25.509,0.638,38.264,0.498c25.506-0.295,51.016-1.825,76.292-5.192c12.634-1.691,25.208-3.843,37.64-6.628
		c12.426-2.788,24.724-6.192,36.669-10.563c11.91-4.396,23.585-9.688,33.985-16.902c5.165-3.62,10.016-7.753,13.871-12.678
		c0.952-1.223,1.874-2.529,2.623-3.809c0.689-1.248,0.98-2.628,0.743-3.978c-0.216-1.355-0.925-2.651-1.824-3.827
		c-0.907-1.178-2.02-2.24-3.212-3.216c-2.391-1.957-5.082-3.616-7.856-5.11c-2.781-1.493-5.662-2.825-8.588-4.057
		c-5.855-2.459-11.886-4.538-17.979-6.402c-6.097-1.857-12.265-3.495-18.484-4.914c-3.108-0.715-6.23-1.375-9.37-1.946
		c-1.569-0.283-3.144-0.544-4.725-0.759C507.969,278.51,506.379,278.29,504.782,278.361z"/>
</g>
<g display="none">
	<path display="inline" fill="#B55535" d="M505.218,278.524c1.593-0.099,3.183,0.132,4.759,0.336
		c1.577,0.223,3.146,0.497,4.712,0.795c3.129,0.6,6.238,1.297,9.334,2.05c6.19,1.513,12.325,3.253,18.393,5.21
		c6.064,1.965,12.066,4.144,17.923,6.69c5.83,2.578,11.613,5.418,16.728,9.369c1.264,1.002,2.474,2.088,3.557,3.311
		c1.077,1.222,2.037,2.595,2.64,4.167c0.603,1.563,0.756,3.363,0.265,5.002c-0.237,0.818-0.593,1.589-1.044,2.299
		c-0.422,0.666-0.874,1.354-1.344,2.006c-3.768,5.247-8.612,9.582-13.769,13.36c-10.396,7.52-22.089,12.958-34.005,17.48
		c-11.953,4.492-24.255,7.982-36.682,10.845c-12.432,2.858-25.003,5.071-37.632,6.817c-25.268,3.474-50.759,5.093-76.244,5.466
		c-12.745,0.181-25.493,0.04-38.23-0.382c-12.736-0.379-25.482-1.197-38.148-2.679c-25.335-2.935-50.407-8.275-74.669-16.164
		c-24.26-7.882-47.707-18.3-69.739-31.167c-21.935-13.013-42.487-28.41-60.707-46.228c18.45,17.579,39.18,32.663,61.211,45.363
		c21.968,12.831,45.35,23.22,69.543,31.08c24.196,7.867,49.203,13.195,74.475,16.122c12.64,1.478,25.34,2.294,38.066,2.673
		c12.723,0.421,25.456,0.562,38.184,0.381c25.451-0.372,50.905-1.989,76.122-5.457c12.604-1.742,25.146-3.95,37.544-6.801
		c12.393-2.854,24.654-6.335,36.554-10.806c11.861-4.501,23.488-9.915,33.769-17.353c5.098-3.734,9.867-8.012,13.543-13.134
		c0.463-0.642,0.885-1.283,1.315-1.963c0.402-0.634,0.72-1.323,0.924-2.035c0.42-1.428,0.289-2.963-0.253-4.366
		c-1.124-2.827-3.445-5.103-5.865-7.061c-4.935-3.919-10.647-6.83-16.41-9.465c-5.793-2.609-11.75-4.86-17.776-6.899
		c-6.029-2.032-12.134-3.85-18.297-5.441c-3.082-0.793-6.18-1.53-9.298-2.169c-1.56-0.318-3.124-0.613-4.697-0.856
		C508.396,278.698,506.811,278.446,505.218,278.524z"/>
</g>
<g display="none">
	<path display="inline" fill="#B55535" d="M506.537,278.524c1.586-0.088,3.163,0.188,4.725,0.435
		c1.562,0.268,3.114,0.592,4.66,0.941c3.09,0.704,6.156,1.512,9.205,2.38c6.096,1.742,12.122,3.726,18.067,5.931
		c5.941,2.213,11.808,4.646,17.501,7.452c5.665,2.834,11.265,5.947,16.097,10.131c2.354,2.11,4.628,4.543,5.674,7.657
		c0.511,1.54,0.586,3.264,0.089,4.83c-0.234,0.786-0.6,1.526-1.036,2.209c-0.419,0.668-0.87,1.339-1.332,1.985
		c-3.733,5.188-8.534,9.493-13.648,13.25c-10.312,7.479-21.926,12.908-33.766,17.429c-11.878,4.489-24.107,7.987-36.463,10.861
		c-12.361,2.871-24.864,5.099-37.426,6.863c-25.133,3.515-50.496,5.181-75.856,5.612c-12.683,0.202-25.37,0.049-38.045-0.363
		c-12.676-0.383-25.355-1.152-37.964-2.582c-25.217-2.813-50.194-7.964-74.364-15.707c-24.163-7.735-47.521-18.058-69.324-31.045
		c-10.883-6.517-21.375-13.691-31.328-21.552c-9.933-7.875-19.4-16.382-27.865-25.824c8.526,9.386,18.043,17.827,28.019,25.629
		c9.995,7.788,20.52,14.885,31.429,21.32c21.798,12.913,45.138,23.168,69.273,30.834c24.142,7.674,49.081,12.759,74.253,15.51
		c12.588,1.398,25.237,2.137,37.901,2.491c12.663,0.393,25.334,0.491,38,0.299c25.328-0.376,50.659-1.984,75.758-5.438
		c12.546-1.734,25.031-3.931,37.373-6.769c12.337-2.842,24.545-6.306,36.397-10.755c11.813-4.48,23.397-9.868,33.659-17.277
		c5.089-3.722,9.857-7.982,13.554-13.097c0.884-1.297,1.872-2.569,2.302-4.036c0.466-1.463,0.402-3.059-0.077-4.521
		c-0.981-2.957-3.194-5.359-5.503-7.456c-4.744-4.163-10.309-7.309-15.938-10.168c-5.661-2.833-11.504-5.301-17.426-7.548
		c-5.925-2.241-11.936-4.261-18.017-6.04c-3.041-0.887-6.101-1.714-9.186-2.437c-1.543-0.359-3.092-0.693-4.652-0.97
		C509.697,278.732,508.123,278.446,506.537,278.524z"/>
</g>
<g display="none">
	<path display="inline" fill="#B55535" d="M506.726,278.524c1.587-0.083,3.16,0.229,4.714,0.508c1.556,0.302,3.1,0.665,4.636,1.054
		c3.07,0.783,6.112,1.677,9.134,2.633c6.042,1.917,12.004,4.084,17.876,6.475c5.868,2.397,11.652,5.018,17.251,8.005
		c5.571,3.013,11.061,6.311,15.776,10.621c2.298,2.178,4.489,4.653,5.57,7.737c0.525,1.529,0.673,3.229,0.261,4.819
		c-0.193,0.796-0.528,1.55-0.938,2.251c-0.416,0.692-0.852,1.347-1.313,2.004c-3.685,5.221-8.463,9.548-13.563,13.319
		c-5.118,3.77-10.618,6.987-16.278,9.855c-5.664,2.865-11.504,5.371-17.433,7.625c-11.868,4.494-24.09,7.993-36.438,10.869
		c-12.354,2.868-24.851,5.097-37.406,6.855c-25.12,3.506-50.471,5.162-75.818,5.58c-12.676,0.205-25.356,0.087-38.027-0.31
		c-12.671-0.36-25.342-1.101-37.943-2.54c-25.2-2.825-50.152-8.09-74.236-16.064c-24.081-7.961-47.281-18.637-68.869-31.963
		c-21.561-13.367-41.433-29.429-59.031-47.672c17.718,18.128,37.687,34.031,59.293,47.246
		c21.554,13.306,44.718,23.965,68.763,31.914c24.049,7.963,48.966,13.221,74.135,16.042c12.586,1.438,25.24,2.177,37.903,2.537
		c12.663,0.396,25.335,0.515,38.003,0.31c25.331-0.417,50.662-2.072,75.757-5.575c12.543-1.758,25.025-3.983,37.362-6.848
		c12.331-2.872,24.533-6.366,36.374-10.85c5.916-2.249,11.739-4.747,17.385-7.604c5.641-2.858,11.118-6.063,16.208-9.812
		c5.069-3.749,9.811-8.048,13.449-13.204c0.889-1.293,1.824-2.593,2.175-4.09c0.385-1.488,0.251-3.077-0.249-4.537
		c-1.027-2.946-3.172-5.384-5.436-7.535c-4.629-4.288-10.079-7.618-15.613-10.656c-5.564-3.016-11.323-5.67-17.17-8.103
		c-5.85-2.426-11.794-4.63-17.819-6.586c-3.013-0.975-6.048-1.888-9.111-2.691c-1.533-0.399-3.073-0.771-4.626-1.083
		C509.882,278.774,508.313,278.451,506.726,278.524z"/>
</g>
<g display="none">
	<path display="inline" fill="#B45536" d="M537.233,217.649c14.761,4.693,29.041,11.012,42.352,19.024
		c13.306,8,25.672,17.669,36.365,29.02c5.352,5.665,10.214,11.811,14.45,18.369c4.245,6.55,7.913,13.496,10.729,20.797
		c2.816,7.294,4.782,14.953,5.54,22.771c0.784,7.81,0.212,15.778-1.684,23.397c-1.874,7.631-4.98,14.915-8.899,21.684
		c-3.92,6.777-8.645,13.054-13.858,18.856c-10.457,11.608-22.801,21.344-35.907,29.702c-13.136,8.35-27.101,15.323-41.477,21.215
		c-14.385,5.887-29.197,10.687-44.238,14.556c-30.095,7.725-61.077,11.767-92.106,12.66c-7.762,0.231-15.521,0.208-23.273,0.123
		c-7.753-0.089-15.507-0.29-23.256-0.618c-15.498-0.661-30.986-1.837-46.385-3.835c-15.392-2.006-30.708-4.83-45.7-8.971
		c-14.985-4.129-29.634-9.649-43.415-16.923c-6.899-3.615-13.488-7.811-19.784-12.38c-6.298-4.57-12.289-9.55-17.961-14.854
		c-11.358-10.61-21.414-22.49-30.721-34.863c9.599,12.148,19.922,23.767,31.466,34.047c5.765,5.141,11.828,9.939,18.174,14.317
		c6.342,4.388,12.983,8.313,19.775,11.941c13.605,7.242,28.133,12.679,43,16.787c14.878,4.109,30.104,6.919,45.425,8.915
		c15.327,1.988,30.76,3.161,46.212,3.82c7.727,0.327,15.46,0.527,23.195,0.616c7.735,0.084,15.471,0.108,23.193-0.122
		c30.891-0.889,61.73-4.914,91.665-12.598c14.96-3.849,29.688-8.621,43.979-14.47c14.282-5.854,28.144-12.777,41.16-21.052
		c12.988-8.281,25.195-17.918,35.494-29.352c5.135-5.715,9.775-11.884,13.614-18.521c3.838-6.629,6.866-13.739,8.689-21.16
		c1.842-7.417,2.396-15.122,1.634-22.728c-0.737-7.609-2.654-15.095-5.414-22.243c-2.765-7.152-6.354-13.987-10.55-20.42
		c-4.214-6.427-8.987-12.479-14.139-18.197c-10.346-11.41-22.426-21.241-35.508-29.448
		C565.972,229.314,551.878,222.693,537.233,217.649z"/>
</g>
<g display="none">
	<path display="inline" fill="#B45536" d="M537.934,218.069c14.325,5.111,28.275,11.383,41.441,19.084
		c13.152,7.694,25.574,16.794,36.396,27.646c5.414,5.415,10.323,11.352,14.606,17.719c4.295,6.355,7.961,13.164,10.708,20.352
		c2.749,7.182,4.565,14.745,5.194,22.431c0.356,3.851,0.285,7.767-0.311,11.607c-0.576,3.838-1.594,7.592-2.917,11.217
		c-2.657,7.258-6.494,13.998-10.908,20.268c-4.43,6.269-9.466,12.075-14.855,17.506c-10.806,10.85-22.998,20.212-35.852,28.444
		c-25.779,16.42-54.218,28.383-83.587,36.577c-29.401,8.171-59.851,12.484-90.35,13.022c-15.246,0.163-30.465-0.104-45.687-0.77
		c-15.216-0.688-30.423-1.829-45.553-3.716c-15.125-1.888-30.183-4.512-44.972-8.313c-14.784-3.789-29.286-8.826-43.077-15.444
		c-13.758-6.689-26.574-15.239-38.225-25.074c-11.665-9.843-22.13-20.989-31.806-32.72c9.951,11.499,20.662,22.374,32.493,31.887
		c5.909,4.758,12.088,9.17,18.51,13.185c6.419,4.022,13.104,7.592,19.915,10.885c13.615,6.624,28.015,11.566,42.688,15.346
		c14.685,3.773,29.662,6.385,44.721,8.265c15.064,1.878,30.221,3.017,45.396,3.702c15.172,0.665,30.386,0.931,45.562,0.768
		c30.334-0.535,60.618-4.825,89.849-12.949c29.199-8.146,57.467-20.043,83.045-36.335c12.753-8.167,24.837-17.45,35.512-28.17
		c5.323-5.363,10.288-11.091,14.64-17.249c4.336-6.158,8.086-12.758,10.663-19.8c5.659-14.087,3.29-29.886-1.956-43.855
		c-2.686-7.027-6.276-13.702-10.497-19.946c-4.24-6.237-9.104-12.037-14.317-17.502c-10.465-10.919-22.607-20.202-35.545-28.117
		C565.896,230.115,552.126,223.537,537.934,218.069z"/>
</g>
<g display="none">
	<path display="inline" fill="#B45536" d="M537.653,217.929c14.24,5.072,28.217,11.002,41.504,18.306
		c13.267,7.293,25.907,15.958,36.814,26.621c5.442,5.331,10.343,11.231,14.571,17.585c4.243,6.343,7.794,13.159,10.514,20.295
		c2.726,7.138,4.622,14.569,5.74,22.126c1.098,7.77-0.604,15.594-3.465,22.677c-2.891,7.123-6.951,13.674-11.536,19.757
		c-4.599,6.085-9.758,11.712-15.236,16.981c-10.982,10.53-23.221,19.651-36.067,27.72c-25.754,16.09-53.977,28.011-83.151,36.234
		c-29.198,8.2-59.458,12.606-89.783,13.062c-15.153,0.115-30.273-0.111-45.405-0.67c-15.126-0.576-30.247-1.534-45.313-3.128
		c-15.062-1.6-30.079-3.828-44.887-7.135c-14.801-3.3-29.395-7.73-43.349-13.776c-13.917-6.118-26.984-14.154-38.746-23.729
		c-11.778-9.575-22.181-20.704-31.502-32.6c9.601,11.672,20.245,22.523,32.171,31.759c5.953,4.622,12.212,8.839,18.722,12.614
		c6.501,3.795,13.281,7.074,20.169,10.086c13.778,6.055,28.271,10.399,42.97,13.693c14.712,3.285,29.658,5.505,44.662,7.099
		c15.009,1.587,30.086,2.543,45.178,3.117c15.087,0.558,30.213,0.784,45.299,0.669c30.151-0.452,60.241-4.834,89.272-12.987
		c29.007-8.175,57.065-20.031,82.631-36.003c12.75-8.008,24.887-17.057,35.743-27.467c5.416-5.209,10.506-10.764,15.026-16.745
		c4.507-5.979,8.478-12.397,11.277-19.301c2.777-6.868,4.374-14.358,3.339-21.646c-1.095-7.398-2.958-14.704-5.628-21.694
		c-2.666-6.994-6.145-13.673-10.309-19.897c-4.168-6.225-9.033-11.965-14.285-17.318c-10.526-10.72-22.884-19.58-35.94-27.105
		C565.568,229.611,551.758,223.366,537.653,217.929z"/>
</g>
<g display="none">
	<path display="inline" fill="#B45536" d="M537.458,217.744c14.093,4.914,27.788,11.071,40.684,18.669
		c12.888,7.588,25.016,16.592,35.652,27.211c5.321,5.301,10.175,11.085,14.477,17.258c4.315,6.162,8.076,12.732,11.05,19.664
		c2.97,6.927,5.145,14.226,6.214,21.715c0.136,0.938,0.252,1.868,0.349,2.82c0.093,0.979,0.125,1.944,0.105,2.914
		c-0.037,1.938-0.283,3.855-0.669,5.734c-0.78,3.759-2.118,7.352-3.738,10.777c-3.271,6.851-7.641,13.063-12.43,18.854
		c-4.809,5.786-10.093,11.145-15.651,16.182c-11.135,10.063-23.346,18.859-36.11,26.688c-25.576,15.613-53.414,27.373-82.219,35.496
		c-28.82,8.105-58.692,12.48-88.631,12.906c-29.89,0.148-59.795-0.771-89.548-3.901c-14.866-1.59-29.688-3.76-44.333-6.867
		c-14.64-3.105-29.109-7.175-43.079-12.643c-13.925-5.56-27.212-12.789-39.266-21.684c-12.065-8.886-22.766-19.524-31.958-31.28
		c9.472,11.533,20.394,21.873,32.585,30.409c6.086,4.277,12.469,8.119,19.064,11.54c6.589,3.44,13.418,6.384,20.322,9.118
		c13.813,5.488,28.197,9.479,42.747,12.583c14.561,3.089,29.317,5.251,44.13,6.835c29.638,3.119,59.508,4.038,89.308,3.89
		c29.764-0.423,59.464-4.773,88.118-12.832c28.639-8.074,56.317-19.771,81.717-35.276c12.675-7.772,24.792-16.504,35.813-26.464
		c5.5-4.984,10.721-10.281,15.455-15.978c4.714-5.696,8.994-11.798,12.161-18.433c3.13-6.609,5.168-13.891,3.78-21.105
		c-1.042-7.294-3.164-14.425-6.072-21.211c-2.913-6.789-6.604-13.242-10.85-19.304c-4.264-6.054-9.079-11.709-14.207-17.063
		c-10.287-10.696-22.136-19.879-34.805-27.688C564.934,229.479,551.42,223.016,537.458,217.744z"/>
</g>
<path display="none" fill="none" stroke="#B55535" stroke-width="0.75" stroke-miterlimit="10" d="M543.918,240.398
	c50.502,19.419,109.442,58.611,111.018,107.826c2.548,79.592-97.874,132.495-234.618,136.11
	c-140.766,3.722-286.384-44.937-286.384-124.568"/>
<path display="none" fill="none" stroke="#B55535" stroke-miterlimit="10" d="M543.673,240.398
	c67.9,25.904,109.416,64.855,111.907,107.503C660.317,429,556.439,485.64,415.65,488.334
	C276.317,491,133.764,439.567,133.764,359.936"/>
<path display="none" fill="none" stroke="#B55535" stroke-miterlimit="10" d="M544.407,240.398
	c69.627,26.022,110.903,70.788,111.467,114.031c1.11,85.238-115.409,141.238-256.224,141.238
	c-140.815,0-266.226-55.931-266.226-135.563"/>
<g display="none">
	<path display="inline" fill="#B45536" d="M543.322,239.814c16.093,5.967,31.75,13.23,46.464,22.162
		c14.676,8.944,28.494,19.553,40.081,32.417c5.758,6.45,10.844,13.517,15.085,21.074c4.226,7.562,7.527,15.672,9.556,24.119
		c2.035,8.441,2.776,17.202,2.149,25.867c-0.616,8.668-2.611,17.221-5.747,25.308c-3.131,8.096-7.381,15.725-12.378,22.787
		c-5.002,7.067-10.751,13.577-16.974,19.565c-12.472,11.977-26.771,21.888-41.834,30.238c-15.087,8.346-30.993,15.131-47.289,20.678
		c-16.305,5.543-33.017,9.837-49.921,13.06c-33.823,6.424-68.398,8.601-102.765,7.039c-34.365-1.603-68.596-6.951-101.676-16.496
		c-16.53-4.786-32.768-10.641-48.442-17.784c-15.653-7.163-30.797-15.571-44.734-25.754c-13.799-10.302-26.493-22.366-36.129-36.708
		c-4.796-7.159-8.776-14.893-11.501-23.064c-2.733-8.162-4.169-16.762-4.077-25.349c0.075,8.588,1.676,17.126,4.55,25.186
		c2.867,8.069,6.964,15.661,11.854,22.664c9.825,14.024,22.622,25.721,36.483,35.656c13.822,10.052,28.82,18.453,44.385,25.55
		c15.573,7.098,31.722,12.921,48.167,17.683c32.913,9.496,66.997,14.823,101.212,16.419c34.217,1.555,68.644-0.614,102.299-7.006
		c16.82-3.206,33.443-7.479,49.65-12.987c16.199-5.515,32-12.257,46.965-20.534c14.942-8.283,29.103-18.104,41.416-29.931
		c12.266-11.794,22.724-25.75,28.873-41.633c3.069-7.916,5.016-16.268,5.617-24.729c0.612-8.46-0.11-17.008-2.099-25.256
		c-1.982-8.253-5.211-16.192-9.357-23.612c-4.136-7.436-9.237-14.309-14.843-20.719c-11.198-12.874-24.673-23.704-39.112-32.885
		C574.78,253.658,559.294,246.096,543.322,239.814z"/>
</g>
<g display="none">
	<path display="inline" fill="#B45536" d="M232.482,262.792c-17.569,5.68-35.084,11.6-52.11,18.72
		c-8.519,3.531-16.912,7.391-24.955,11.891c-8.024,4.506-15.746,9.651-22.464,15.94c-6.704,6.258-12.339,13.807-15.553,22.421
		c-3.275,8.59-3.961,18.002-2.96,27.109c1.018,9.14,3.88,18.016,7.898,26.281c4.021,8.28,9.17,15.985,14.944,23.156
		c11.599,14.342,25.581,26.612,40.44,37.504c14.9,10.88,30.789,20.372,47.2,28.798c16.421,8.418,33.395,15.75,50.719,22.104
		c17.291,6.45,34.962,11.907,52.912,16.259c-18.006-4.113-35.763-9.338-53.165-15.566c-17.362-6.34-34.355-13.7-50.809-22.129
		c-16.44-8.44-32.361-17.952-47.3-28.859c-14.898-10.92-28.925-23.227-40.582-37.639c-5.802-7.206-10.982-14.956-15.035-23.3
		c-4.048-8.327-6.94-17.286-7.968-26.524c-1.012-9.201-0.321-18.734,3.004-27.457c3.262-8.744,8.977-16.39,15.742-22.704
		c6.781-6.348,14.55-11.521,22.611-16.048c8.079-4.52,16.497-8.39,25.034-11.929C197.222,273.859,214.839,268.238,232.482,262.792z"
		/>
</g>
<g display="none">
	<path display="inline" fill="#B35537" d="M232.115,262.608c-17.869,5.574-35.693,11.361-53.058,18.306
		c-8.701,3.413-17.28,7.153-25.543,11.501c-8.247,4.355-16.214,9.326-23.26,15.42c-7.02,6.071-13.092,13.421-16.672,22.004
		c-3.663,8.55-4.466,18.093-3.48,27.309c0.997,9.251,3.944,18.228,8.072,26.564c4.136,8.352,9.424,16.106,15.338,23.315
		c11.883,14.419,26.144,26.738,41.264,37.688c15.163,10.936,31.298,20.494,47.951,28.992c16.662,8.493,33.87,15.904,51.429,22.343
		c17.511,6.57,35.407,12.15,53.594,16.602c-18.262-4.131-36.273-9.401-53.932-15.677c-17.605-6.423-34.841-13.87-51.544-22.377
		c-16.691-8.519-32.868-18.101-48.082-29.072c-15.171-10.987-29.492-23.354-41.452-37.864c-5.952-7.257-11.283-15.07-15.461-23.507
		c-4.169-8.421-7.158-17.511-8.169-26.9c-0.506-4.688-0.532-9.43-0.007-14.124c0.532-4.695,1.724-9.321,3.56-13.68
		c3.655-8.761,9.839-16.231,16.939-22.371c7.129-6.166,15.157-11.171,23.449-15.55c8.309-4.373,16.92-8.123,25.64-11.558
		C196.204,273.274,214.149,267.863,232.115,262.608z"/>
</g>
<g display="none">
	<path display="inline" fill="#B35537" d="M232.482,262.792c-18.681,4.468-37.229,9.617-55.207,16.329
		c-9.004,3.296-17.865,7.01-26.373,11.417c-8.49,4.416-16.67,9.518-23.892,15.786c-7.196,6.242-13.427,13.783-17.152,22.57
		c-1.871,4.374-3.092,9.019-3.638,13.744c-0.539,4.729-0.476,9.528,0.119,14.256c1.19,9.475,4.512,18.598,9.024,27.01
		c4.523,8.429,10.204,16.208,16.484,23.432c12.619,14.44,27.515,26.756,43.211,37.751c15.738,10.977,32.394,20.612,49.543,29.223
		c17.159,8.602,34.838,16.16,52.867,22.747c17.979,6.722,36.339,12.469,55.005,17.034c-18.741-4.244-37.217-9.68-55.344-16.104
		c-18.071-6.58-35.779-14.167-52.977-22.782c-17.186-8.629-33.881-18.287-49.668-29.298c-15.744-11.029-30.697-23.388-43.393-37.914
		c-6.318-7.268-12.043-15.104-16.611-23.616c-4.557-8.494-7.926-17.733-9.135-27.356c-0.604-4.803-0.668-9.679-0.12-14.496
		c0.556-4.817,1.802-9.561,3.71-14.021c3.801-8.964,10.14-16.622,17.417-22.934c7.304-6.34,15.548-11.477,24.087-15.919
		c8.559-4.429,17.453-8.165,26.486-11.476C195.068,271.716,213.727,266.935,232.482,262.792z"/>
</g>
<g display="none">
	<path display="inline" fill="#B25538" d="M233.681,262.364c-4.779,0.973-9.54,2.027-14.275,3.168
		c-4.741,1.117-9.459,2.323-14.148,3.622c-9.377,2.598-18.637,5.585-27.709,9.018c-9.136,3.239-18.128,6.9-26.753,11.281
		c-8.618,4.373-16.921,9.402-24.42,15.426c-7.468,6.017-14.183,13.089-18.799,21.409c-2.298,4.149-4.047,8.594-5.056,13.207
		c-1.024,4.606-1.268,9.392-1.011,14.134c0.536,9.513,3.415,18.819,7.674,27.397c4.266,8.601,9.857,16.536,16.113,23.881
		c6.269,7.347,13.219,14.122,20.553,20.448c7.338,6.327,15.067,12.209,23.043,17.736c15.966,11.045,32.89,20.702,50.306,29.323
		c17.429,8.61,35.375,16.18,53.668,22.771c18.129,7.058,36.686,13.049,55.525,18.11c-4.778-0.979-9.542-2.033-14.292-3.157
		c-4.745-1.143-9.474-2.361-14.186-3.644c-9.424-2.567-18.783-5.399-28.063-8.487c-18.396-6.628-36.443-14.238-53.982-22.903
		c-17.527-8.677-34.57-18.399-50.685-29.547c-8.05-5.579-15.861-11.522-23.294-17.93c-7.427-6.408-14.484-13.284-20.876-20.774
		c-6.377-7.489-12.11-15.612-16.518-24.496c-4.398-8.857-7.417-18.56-7.981-28.557c-0.269-4.984-0.017-10.03,1.076-14.951
		c1.075-4.916,2.937-9.639,5.361-14.015c4.873-8.777,11.863-16.104,19.542-22.293c7.714-6.196,16.187-11.32,24.946-15.766
		c8.78-4.419,17.854-8.208,27.104-11.456c9.321-3.049,18.791-5.567,28.325-7.716c4.769-1.07,9.556-2.047,14.357-2.928
		C224.032,263.818,228.852,263.049,233.681,262.364z"/>
</g>
<g display="none">
	<path display="inline" fill="#CD6632" d="M152.145,239.4c-1.485,4.964-2.831,9.966-4.01,15.002
		c-1.197,5.031-2.234,10.095-3.057,15.189c-1.655,10.182-2.473,20.491-2.123,30.731c0.135,5.115,0.384,10.233,1.135,15.293
		c0.719,5.059,1.785,10.065,3.24,14.955c2.893,9.785,7.38,19.081,13.265,27.413c5.876,8.344,13.098,15.713,21.12,22.063
		c8.024,6.363,16.825,11.738,26,16.357c18.394,9.228,38.175,15.502,58.179,20.549c10.016,2.521,20.12,4.716,30.253,6.835
		c10.134,2.142,20.267,4.149,30.453,5.979c20.36,3.673,40.836,6.698,61.365,9.356c20.529,2.673,41.116,4.947,61.693,7.493
		c10.259,1.515,20.512,3.112,30.723,4.955c10.21,1.834,20.378,3.957,30.385,6.659c-20.303-4.2-40.88-6.548-61.478-8.638
		c-20.545-2.541-41.147-4.818-61.708-7.495c-20.563-2.662-41.091-5.694-61.512-9.379c-10.207-1.832-20.399-3.852-30.536-5.994
		c-10.146-2.121-20.292-4.325-30.37-6.862c-20.128-5.08-40.106-11.404-58.795-20.778c-9.323-4.693-18.298-10.171-26.516-16.687
		c-8.213-6.502-15.647-14.079-21.708-22.687c-6.07-8.593-10.708-18.201-13.688-28.286c-2.985-10.087-4.412-20.593-4.523-31.065
		c0.092-10.484,1.44-20.882,3.574-31.061c1.069-5.092,2.345-10.132,3.783-15.119C148.755,249.199,150.382,244.272,152.145,239.4z"/>
</g>
<g display="none">
	<path display="inline" fill="#CD6632" d="M151.651,242c-3.925,9.347-7.038,19.056-8.852,29.019
		c-1.817,9.95-2.291,20.165-0.982,30.173c0.64,5.001,1.664,9.954,3.151,14.772c1.486,4.817,3.402,9.502,5.705,13.988
		c4.599,8.985,10.713,17.151,17.717,24.421c7.01,7.279,14.891,13.694,23.227,19.414c8.344,5.72,17.15,10.757,26.207,15.273
		c18.135,9.021,37.228,16.023,56.642,21.789c9.714,2.877,19.523,5.433,29.396,7.715c9.871,2.283,19.821,4.25,29.759,6.26
		c19.887,3.975,39.831,7.658,59.808,11.154l59.977,10.28c19.956,3.641,39.89,7.513,59.578,12.408
		c-19.767-4.571-39.753-8.062-59.752-11.414l-59.976-10.29c-19.983-3.496-39.936-7.182-59.832-11.158
		c-9.942-2.011-19.895-3.978-29.788-6.266c-9.89-2.287-19.719-4.848-29.454-7.73c-19.458-5.779-38.601-12.798-56.805-21.854
		c-9.092-4.533-17.937-9.592-26.326-15.343c-8.382-5.751-16.315-12.208-23.382-19.546c-7.061-7.328-13.236-15.573-17.887-24.658
		c-4.649-9.071-7.761-18.962-8.946-29.097c-1.159-10.143-0.509-20.425,1.478-30.385C144.298,260.952,147.576,251.282,151.651,242z"
		/>
</g>
<g display="none">
	<path display="inline" fill="#CD6632" d="M150.318,245c-3.272,9.491-5.835,19.241-7.311,29.165
		c-1.475,9.915-1.843,20.014-0.712,29.962c1.081,9.945,3.664,19.735,7.802,28.847c4.116,9.122,9.729,17.537,16.347,25.041
		c6.618,7.516,14.211,14.143,22.331,20.004c8.127,5.865,16.786,10.976,25.724,15.512c17.902,9.063,36.868,15.885,56.129,21.476
		c19.279,5.592,38.917,9.857,58.611,13.754c19.699,3.886,39.505,7.22,59.378,10.091c19.871,2.896,39.813,5.275,59.733,7.873
		c19.899,2.701,39.793,5.79,59.301,10.61c-19.567-4.583-39.485-7.333-59.398-9.866c-19.912-2.597-39.861-4.978-59.743-7.875
		c-19.884-2.872-39.704-6.209-59.416-10.097c-19.704-3.899-39.363-8.169-58.675-13.77c-19.293-5.601-38.3-12.436-56.26-21.527
		c-8.967-4.551-17.659-9.681-25.824-15.572c-8.158-5.889-15.793-12.552-22.455-20.117c-6.661-7.553-12.318-16.031-16.468-25.228
		c-4.162-9.186-6.799-19.053-7.842-29.077c-1.019-10.034-0.523-20.173,1.076-30.096C144.247,264.178,146.931,254.451,150.318,245z"
		/>
</g>
<g display="none">
	<path display="inline" fill="#FDCC9A" d="M564.946,341.987c-8.565,5.726-17.689,10.6-27.077,14.854
		c-9.396,4.251-19.069,7.881-28.893,11.027c-19.676,6.231-39.927,10.531-60.331,13.555c-20.412,3.039-41.02,4.63-61.635,5.296
		c-20.625,0.624-41.255,0.361-61.867-0.866c-41.18-2.805-82.086-12.498-119.488-30.125c-18.687-8.795-36.477-19.47-53.019-31.804
		c-8.25-6.194-16.19-12.794-23.798-19.749c-7.626-6.938-14.852-14.292-21.98-21.725c7.25,7.315,14.591,14.546,22.318,21.348
		c7.709,6.819,15.737,13.272,24.061,19.312c16.607,12.132,34.415,22.603,53.087,31.179c18.68,8.554,38.148,15.382,58.109,20.245
		c19.954,4.894,40.351,7.91,60.847,9.283c41.032,2.461,82.384,1.649,123.144-3.937c20.366-2.823,40.581-6.95,60.258-12.953
		c9.842-2.979,19.544-6.445,28.986-10.536C547.104,352.295,556.29,347.575,564.946,341.987z"/>
</g>
<g display="none">
	<path display="inline" fill="#CB9966" d="M576.332,334.544c-5.989,8.416-13.868,15.349-22.383,21.155
		c-8.544,5.813-17.779,10.556-27.279,14.604c-19.07,7.999-39.164,13.282-59.438,17.135c-20.297,3.849-40.874,6.047-61.479,7.253
		c-20.613,1.182-41.28,1.285-61.907,0.507c-41.266-1.606-82.464-9.933-120.52-26.155c-19.009-8.099-37.227-18.063-54.194-29.833
		c-8.464-5.911-16.616-12.267-24.372-19.07c-7.748-6.809-15.128-14.047-21.881-21.836c6.875,7.681,14.361,14.793,22.201,21.466
		c7.848,6.668,16.078,12.877,24.606,18.635c17.025,11.563,35.247,21.335,54.237,29.222c19,7.864,38.717,13.982,58.841,18.197
		c20.122,4.231,40.614,6.627,61.162,7.378c41.111,1.639,82.491-0.072,123.03-7.27c20.231-3.654,40.284-8.756,59.341-16.526
		c9.518-3.88,18.782-8.455,27.382-14.109C562.249,349.645,570.21,342.864,576.332,334.544z"/>
</g>
<g display="none">
	<path display="inline" fill="#FDCC9A" d="M638.07,320.179c-0.697,11.194-4.714,22.024-10.64,31.519
		c-5.927,9.539-13.61,17.888-22.021,25.289c-8.454,7.383-17.683,13.833-27.277,19.626c-9.605,5.788-19.599,10.911-29.813,15.524
		c-20.437,9.236-41.784,16.332-63.461,21.984c-21.695,5.615-43.785,9.702-66.058,12.219c-11.141,1.223-22.321,2.057-33.53,2.419
		c-11.211,0.34-22.435,0.104-33.62-0.646c-22.368-1.518-44.606-4.986-66.34-10.461c-21.73-5.461-43.013-12.786-63.317-22.259
		c-20.253-9.534-39.581-21.208-56.734-35.589c17.359,14.13,36.814,25.495,57.141,34.708c20.328,9.254,41.587,16.397,63.277,21.655
		c21.699,5.219,43.824,8.71,66.092,10.134c11.132,0.715,22.296,0.92,33.441,0.552c11.145-0.391,22.283-1.252,33.37-2.499
		c22.182-2.455,44.199-6.459,65.824-11.996c21.62-5.54,42.853-12.657,63.287-21.627c10.205-4.508,20.191-9.524,29.792-15.204
		c9.595-5.681,18.814-12.029,27.284-19.281c8.465-7.231,16.219-15.412,22.249-24.81C633.045,342.082,637.208,331.362,638.07,320.179
		z"/>
</g>
<path display="none" fill="none" stroke="#FDCC9A" stroke-width="1.8165" stroke-miterlimit="10" d="M598.959,324.982
	c-9.373,65.144-102.311,122.798-234.911,121.21c-127.887-1.531-238.712-40.825-238.342-113.151"/>
<g display="none">
	<path display="inline" fill="#FDCC9A" d="M604.832,337.73c-1.946,11.866-5.861,23.424-11.603,34.021
		c-5.722,10.611-13.217,20.234-21.846,28.658c-8.646,8.422-18.411,15.646-28.744,21.855c-10.346,6.208-21.274,11.406-32.498,15.805
		c-22.47,8.81-46.076,14.386-69.864,18.1c-11.905,1.848-23.883,3.196-35.889,4.15c-12.002,0.941-24.043,1.563-36.099,1.575
		c-24.101,0.003-48.196-2.022-71.957-6.031c-23.744-4.044-47.219-9.984-69.761-18.546c-11.265-4.276-22.299-9.19-32.908-14.919
		c-10.596-5.735-20.794-12.275-30.098-19.96c-9.259-7.698-17.684-16.57-23.953-26.896c-3.124-5.153-5.677-10.666-7.408-16.438
		c-1.74-5.766-2.632-11.784-2.594-17.798c0.036,6.014,1.002,12.01,2.806,17.733c1.795,5.729,4.404,11.184,7.574,16.271
		c6.362,10.191,14.842,18.903,24.138,26.441c9.311,7.561,19.492,14.005,30.077,19.637c10.595,5.626,21.613,10.441,32.857,14.622
		c22.514,8.314,45.872,14.278,69.543,18.223c23.676,3.941,47.683,5.897,71.68,5.848c11.997,0.016,23.993-0.576,35.966-1.487
		c11.969-0.925,23.909-2.241,35.773-4.055c23.716-3.621,47.193-9.209,69.612-17.766c11.192-4.298,22.093-9.391,32.416-15.489
		c10.315-6.098,20.054-13.219,28.716-21.51c8.674-8.263,16.244-17.736,22.071-28.235C598.688,361.056,602.74,349.572,604.832,337.73
		z"/>
</g>
<g display="none">
	<g display="inline">
		<path fill="#FDCC9A" d="M476.059,242.981c24.152,11.675,47.824,24.451,70.336,39.063c18.568,12.052,37.895,25.68,51.16,43.706
			c3.918,5.322,8.634,13.892,8.35,19.52c-0.431,8.51-2.395,16.894-5.331,24.871c-6.201,16.845-17.431,31.463-30.323,43.749
			c-33.181,31.621-78.752,48.92-123.025,57.72c-54.416,10.816-111.729,8.516-165.597-4.256
			c-36.929-8.755-73.734-23.092-104.159-46.171c-22.896-17.369-44.082-42.9-44.299-73.079c-0.02-2.782-0.044,1.61-0.039,2.293
			c0.267,37.007,27.586,65.08,56.854,84.108c42.369,27.546,93.762,40.945,143.551,46.188c53.81,5.666,109.389,0.95,160.472-17.423
			c38.207-13.742,76.913-36.58,98.528-72.071c7.84-12.873,12.667-27.452,13.43-42.53c0.671-13.28-4.641-23.518-13.23-33.486
			c-13.991-16.238-32.411-28.798-50.337-40.254c-21.271-13.593-43.625-25.509-66.34-36.489
			C476.624,238.713,475.438,242.682,476.059,242.981L476.059,242.981z"/>
	</g>
</g>
<g display="none">
	<path display="inline" fill="#FDCC9A" d="M215.465,278.742c-8.178,2.257-16.275,4.804-24.237,7.71
		c-7.969,2.889-15.762,6.224-23.424,9.813c-7.632,3.649-15.056,7.761-22.001,12.579c-6.911,4.827-13.444,10.349-18.521,17.068
		c-2.514,3.357-4.637,7.037-5.927,11.01c-0.641,1.983-1.07,4.034-1.213,6.106c-0.072,1.036-0.078,2.074-0.006,3.111
		c0.063,1.063,0.147,2.11,0.245,3.156c0.815,8.398,2.916,16.65,5.938,24.531c6.085,15.793,15.709,30.029,26.833,42.741
		c11.169,12.726,23.934,23.999,37.509,34.116c13.596,10.107,28.04,19.058,43.013,26.985c14.971,7.943,30.505,14.798,46.355,20.791
		c15.828,6.062,32.042,11.143,48.524,15.18c-16.552-3.737-32.875-8.527-48.846-14.314c-15.944-5.862-31.477-12.841-46.501-20.772
		c-15.014-7.949-29.5-16.926-43.142-27.067c-13.622-10.151-26.437-21.468-37.664-34.259c-11.18-12.778-20.872-27.103-27.014-43.042
		c-3.05-7.954-5.175-16.294-6-24.793c-0.1-1.066-0.185-2.133-0.248-3.188c-0.074-1.079-0.069-2.167,0.006-3.247
		c0.149-2.161,0.596-4.293,1.26-6.344c1.334-4.11,3.515-7.879,6.078-11.302c5.176-6.849,11.782-12.421,18.75-17.29
		c7.002-4.856,14.471-8.993,22.141-12.66c7.656-3.713,15.624-6.728,23.657-9.474C199.075,283.165,207.236,280.807,215.465,278.742z"
		/>
</g>
<g display="none">
	<path display="inline" fill="#CB9966" d="M205.685,276.133c-16.426,4.429-32.381,10.572-47.403,18.454
		c-7.496,3.959-14.728,8.458-21.329,13.764c-6.573,5.303-12.58,11.45-16.869,18.724c-2.131,3.629-3.799,7.537-4.784,11.621
		c-1.011,4.092-1.243,8.299-0.904,12.517c0.616,8.424,3.116,16.637,6.606,24.331c3.509,7.705,7.992,14.95,13.016,21.775
		c5.031,6.828,10.601,13.254,16.514,19.341c11.842,12.172,24.995,23.029,38.815,32.896c13.835,9.86,28.384,18.713,43.407,26.649
		c15.021,7.949,30.556,14.907,46.412,21.015c15.832,6.175,32.056,11.385,48.582,15.434c-16.597-3.749-32.933-8.669-48.91-14.57
		c-15.951-5.978-31.481-13.058-46.551-20.993c-15.06-7.957-29.645-16.831-43.521-26.72c-13.86-9.896-27.057-20.788-38.952-33.014
		c-5.939-6.114-11.539-12.573-16.602-19.445c-5.056-6.869-9.575-14.17-13.121-21.955c-3.527-7.773-6.065-16.096-6.693-24.671
		c-0.346-4.257-0.109-8.649,0.929-12.825c1.011-4.19,2.72-8.19,4.894-11.893c4.376-7.418,10.467-13.64,17.104-18.995
		c6.667-5.358,13.95-9.887,21.49-13.87c7.525-4.028,15.431-7.287,23.431-10.199C189.259,280.613,197.423,278.162,205.685,276.133z"
		/>
</g>
<g display="none">
	<path display="inline" fill="#FDCC9A" d="M210.249,273.525c-17.704,3.598-35.341,7.864-52.195,14.294
		c-8.406,3.221-16.6,7.113-23.999,12.225c-7.385,5.086-13.911,11.551-18.365,19.344c-4.5,7.767-6.799,16.666-7.383,25.614
		c-0.596,8.953,0.906,17.984,3.876,26.451c2.968,8.488,7.327,16.451,12.436,23.857c5.118,7.411,10.996,14.288,17.301,20.729
		c12.644,12.874,26.939,24.051,41.925,34.097c15.01,10.034,30.776,18.921,46.981,26.886c16.208,7.971,32.891,14.957,49.859,21.141
		c16.941,6.263,34.227,11.631,51.79,15.927c-17.634-3.992-35.028-9.065-52.107-15.046c-17.046-6.076-33.73-13.162-49.982-21.124
		c-16.24-7.982-32.043-16.889-47.097-26.952c-15.029-10.075-29.374-21.289-42.083-34.228c-6.338-6.475-12.251-13.392-17.41-20.86
		c-5.147-7.464-9.551-15.503-12.557-24.097c-3.007-8.573-4.536-17.736-3.93-26.851c0.59-9.06,2.926-18.127,7.514-26.043
		c4.541-7.944,11.187-14.52,18.662-19.667c7.491-5.178,15.757-9.089,24.209-12.343c4.224-1.648,8.536-3.056,12.88-4.331
		c4.344-1.279,8.721-2.436,13.117-3.501C192.485,276.916,201.353,275.133,210.249,273.525z"/>
</g>
<g display="none">
	<g display="inline">
		<path fill="#FDCC9A" d="M266.322,269.722c-26.902-0.668-53.943,4.731-78.091,16.746c-17.927,8.919-36.33,22.977-42.776,42.731
			c-2.156,6.605-2.036,13.724-1.927,20.596c0.141,8.873,1.48,17.571,4.02,26.077c5.737,19.212,17.658,36.042,31.459,50.322
			c23.689,24.51,54.017,42.269,84.856,56.211c34.209,15.465,70.635,26.158,107.562,32.738c-0.251-0.045,0.324-4.942,0-5
			c-50.533-9.004-100.558-25.637-144.729-52.072c-35.376-21.172-71.097-51.919-80.897-93.768
			c-2.832-12.092-3.315-24.515,1.965-35.975c5.221-11.331,14.796-20.321,24.776-27.482c26.679-19.143,61.368-26.93,93.782-26.125
			C266.319,274.722,266.401,269.724,266.322,269.722L266.322,269.722z"/>
	</g>
</g>
<g display="none">
	<path display="inline" fill="#CD6632" d="M152.145,239.4c-1.485,4.964-2.831,9.966-4.01,15.002
		c-1.197,5.031-2.234,10.095-3.057,15.189c-1.655,10.182-2.473,20.491-2.123,30.731c0.135,5.115,0.384,10.233,1.135,15.293
		c0.719,5.059,1.785,10.065,3.24,14.955c2.893,9.785,7.38,19.081,13.265,27.413c5.876,8.344,13.098,15.713,21.12,22.063
		c8.024,6.363,16.825,11.738,26,16.357c18.394,9.228,38.175,15.502,58.179,20.549c10.016,2.521,20.12,4.716,30.253,6.835
		c10.134,2.142,20.267,4.149,30.453,5.979c20.36,3.673,40.836,6.698,61.365,9.356c20.529,2.673,41.116,4.947,61.693,7.493
		c10.259,1.515,20.512,3.112,30.723,4.955c10.21,1.834,20.378,3.957,30.385,6.659c-20.303-4.2-40.88-6.548-61.478-8.638
		c-20.545-2.541-41.147-4.818-61.708-7.495c-20.563-2.662-41.091-5.694-61.512-9.379c-10.207-1.832-20.399-3.852-30.536-5.994
		c-10.146-2.121-20.292-4.325-30.37-6.862c-20.128-5.08-40.106-11.404-58.795-20.778c-9.323-4.693-18.298-10.171-26.516-16.687
		c-8.213-6.502-15.647-14.079-21.708-22.687c-6.07-8.593-10.708-18.201-13.688-28.286c-2.985-10.087-4.412-20.593-4.523-31.065
		c0.092-10.484,1.44-20.882,3.574-31.061c1.069-5.092,2.345-10.132,3.783-15.119C148.755,249.199,150.382,244.272,152.145,239.4z"/>
</g>
<g display="none">
	<path display="inline" fill="#CD6632" d="M151.651,242c-3.925,9.347-7.038,19.056-8.852,29.019
		c-1.817,9.95-2.291,20.165-0.982,30.173c0.64,5.001,1.664,9.954,3.151,14.772c1.486,4.817,3.402,9.502,5.705,13.988
		c4.599,8.985,10.713,17.151,17.717,24.421c7.01,7.279,14.891,13.694,23.227,19.414c8.344,5.72,17.15,10.757,26.207,15.273
		c18.135,9.021,37.228,16.023,56.642,21.789c9.714,2.877,19.523,5.433,29.396,7.715c9.871,2.283,19.821,4.25,29.759,6.26
		c19.887,3.975,39.831,7.658,59.808,11.154l59.977,10.28c19.956,3.641,39.89,7.513,59.578,12.408
		c-19.767-4.571-39.753-8.062-59.752-11.414l-59.976-10.29c-19.983-3.496-39.936-7.182-59.832-11.158
		c-9.942-2.011-19.895-3.978-29.788-6.266c-9.89-2.287-19.719-4.848-29.454-7.73c-19.458-5.779-38.601-12.798-56.805-21.854
		c-9.092-4.533-17.937-9.592-26.326-15.343c-8.382-5.751-16.315-12.208-23.382-19.546c-7.061-7.328-13.236-15.573-17.887-24.658
		c-4.649-9.071-7.761-18.962-8.946-29.097c-1.159-10.143-0.509-20.425,1.478-30.385C144.298,260.952,147.576,251.282,151.651,242z"
		/>
</g>
<g display="none">
	<path display="inline" fill="#CD6632" d="M150.318,245c-3.272,9.491-5.835,19.241-7.311,29.165
		c-1.475,9.915-1.843,20.014-0.712,29.962c1.081,9.945,3.664,19.735,7.802,28.847c4.116,9.122,9.729,17.537,16.347,25.041
		c6.618,7.516,14.211,14.143,22.331,20.004c8.127,5.865,16.786,10.976,25.724,15.512c17.902,9.063,36.868,15.885,56.129,21.476
		c19.279,5.592,38.917,9.857,58.611,13.754c19.699,3.886,39.505,7.22,59.378,10.091c19.871,2.896,39.813,5.275,59.733,7.873
		c19.899,2.701,39.793,5.79,59.301,10.61c-19.567-4.583-39.485-7.333-59.398-9.866c-19.912-2.597-39.861-4.978-59.743-7.875
		c-19.884-2.872-39.704-6.209-59.416-10.097c-19.704-3.899-39.363-8.169-58.675-13.77c-19.293-5.601-38.3-12.436-56.26-21.527
		c-8.967-4.551-17.659-9.681-25.824-15.572c-8.158-5.889-15.793-12.552-22.455-20.117c-6.661-7.553-12.318-16.031-16.468-25.228
		c-4.162-9.186-6.799-19.053-7.842-29.077c-1.019-10.034-0.523-20.173,1.076-30.096C144.247,264.178,146.931,254.451,150.318,245z"
		/>
</g>
<g display="none">
	<g display="inline">
		<path fill="#CB9966" d="M568.336,299.357c5.843,4.175,15.308,10.875,16.17,18.708c-0.002-1.637-0.004-3.273-0.007-4.91
			c-0.757,10.648-10.958,19.012-19.185,24.307c-13.677,8.805-29.729,13.898-45.348,17.977
			c-49.295,12.873-101.616,14.96-152.308,14.34c-54.218-0.664-107.445-7.598-158.338-26.994
			c-32.719-12.47-64.461-29.602-91.187-52.397c-6.125-5.224-12.058-10.819-17.116-17.1c0.799,0.992-0.829,3.971,0,5
			c16.4,20.365,40.071,35.644,62.612,48.239c40.399,22.573,85.318,36.575,130.999,43.314c29.578,4.363,59.591,5.116,89.447,5.009
			c27.429-0.098,54.886-1.482,82.132-4.698c21.474-2.534,42.927-6.283,63.667-12.48c14.338-4.284,28.989-9.858,40.943-19.076
			c5.743-4.429,10.833-10.12,13.02-17.152c3.736-12.017-6.583-20.712-15.501-27.085
			C569.099,294.902,567.522,298.776,568.336,299.357L568.336,299.357z"/>
	</g>
</g>
<g display="none">
	<g display="inline">
		<path fill="#FDCC9A" d="M583.299,327.67c-2.376,11.235-10.776,20.024-19.516,26.905c-13.262,10.44-29.118,17.511-44.876,23.245
			c-47.726,17.368-99.983,22.432-150.449,22.516c-52.019,0.085-103.075-7.496-150.567-29.5
			c-31.723-14.697-60.827-35.257-85.129-60.4c-7.736-8.004-14.997-16.522-21.433-25.611c0.802,1.133-0.828,4.018,0,5.188
			c39.196,55.354,102.971,92.081,168.228,106.976c27.396,6.254,55.342,8.229,83.379,8.512c28.41,0.285,56.869-1.424,84.997-5.467
			c22.905-3.292,45.655-8.296,67.559-15.818c16.258-5.583,32.352-12.721,46.275-22.922c9.559-7.004,18.993-16.434,21.531-28.436
			C583.65,331.195,582.951,329.316,583.299,327.67L583.299,327.67z"/>
	</g>
</g>
<g display="none">
	<path display="inline" fill="#FFF9EA" d="M581.449,313.363c-2.572,4.82-6.229,9.05-10.227,12.841
		c-4.04,3.767-8.485,7.089-13.111,10.115c-9.287,6.018-19.309,10.806-29.539,14.945c-20.874,7.17-42.399,11.82-64.051,15.078
		c-21.664,3.241-43.491,5.049-65.327,5.877c-21.84,0.819-43.695,0.634-65.505-0.343c-43.768-2.073-87.351-10.342-128.491-25.721
		c-20.547-7.703-40.484-17.156-59.22-28.716c-9.074-6.245-17.824-12.958-25.961-20.342c-4.061-3.698-7.982-7.543-11.69-11.576
		c-3.686-4.054-7.166-8.287-10.31-12.735c3.658,4.036,7.591,7.784,11.689,11.32c4.08,3.556,8.324,6.905,12.684,10.083
		c8.719,6.358,17.842,12.114,27.264,17.298c18.29,11.276,37.831,20.555,57.997,28.111c40.376,15.098,83.279,23.245,126.352,25.285
		c21.635,0.968,43.306,1.151,64.928,0.34c21.617-0.819,43.2-2.609,64.553-5.804c10.674-1.601,21.288-3.556,31.781-5.973
		c5.246-1.208,10.462-2.533,15.632-3.996c2.585-0.732,5.162-1.487,7.711-2.326c2.549-0.84,5.065-1.76,7.63-2.538
		c10.276-3.052,20.381-6.757,29.947-11.601c4.779-2.42,9.417-5.147,13.728-8.351C574.236,321.459,578.241,317.775,581.449,313.363z"
		/>
</g>
<path display="none" fill="none" d="M382.04,173.099c78.643,4.816,138.495,72.471,133.683,151.119
	c-4.817,78.648-72.477,138.498-151.124,133.683c-78.645-4.815-138.497-72.473-133.681-151.12
	C235.734,228.136,303.394,168.283,382.04,173.099z"/>
<text transform="matrix(0.1384 -0.9904 0.9904 0.1384 230.2056 308.7109)" display="none"><tspan x="0" y="0" display="inline" fill="#F78F3A" font-family="'TempusSansITC'" font-size="48">P</tspan><tspan x="25.257" y="0.118" display="inline" fill="#F78F3A" font-family="'TempusSansITC'" font-size="48" rotate="9.026">a</tspan><tspan x="44.947" y="3.325" display="inline" fill="#F78F3A" font-family="'TempusSansITC'" font-size="48" rotate="16.187">r</tspan><tspan x="59.882" y="7.454" display="inline" fill="#F78F3A" font-family="'TempusSansITC'" font-size="48" rotate="23.332">a</tspan><tspan x="78.131" y="15.059" display="inline" fill="#F78F3A" font-family="'TempusSansITC'" font-size="48" rotate="32.07">d</tspan><tspan x="98.363" y="28.129" display="inline" fill="#F78F3A" font-family="'TempusSansITC'" font-size="48" rotate="39.148">i</tspan><tspan x="107.435" y="35.345" display="inline" fill="#F78F3A" font-family="'TempusSansITC'" font-size="48" rotate="44.582">s</tspan><tspan x="118.578" y="45.992" display="inline" fill="#F78F3A" font-family="'TempusSansITC'" font-size="48" rotate="51.837">e</tspan><tspan x="131.397" y="62.666" display="inline" fill="#F78F3A" font-family="'TempusSansITC'" font-size="48" rotate="58.338"> </tspan><tspan x="138.273" y="71.397" display="inline" fill="#F78F3A" font-family="'TempusSansITC'" font-size="48" rotate="68.192">N</tspan><tspan x="151.584" y="106.622" display="inline" fill="#F78F3A" font-family="'TempusSansITC'" font-size="48" rotate="79.873">e</tspan><tspan x="155.153" y="127.253" display="inline" fill="#F78F3A" font-family="'TempusSansITC'" font-size="48" rotate="87.067">s</tspan><tspan x="156.013" y="142.794" display="inline" fill="#F78F3A" font-family="'TempusSansITC'" font-size="48" rotate="93.356">t</tspan><tspan x="154.998" y="158.834" display="inline" fill="#F78F3A" font-family="'TempusSansITC'" font-size="48" rotate="98.904"> </tspan><tspan x="154.384" y="169.955" display="inline" fill="#F78F3A" font-family="'TempusSansITC'" font-size="48" rotate="108.331">H</tspan><tspan x="142.985" y="203.381" display="inline" fill="#F78F3A" font-family="'TempusSansITC'" font-size="48" rotate="120.716">o</tspan><tspan x="129.411" y="226.368" display="inline" fill="#F78F3A" font-family="'TempusSansITC'" font-size="48" rotate="131.122">u</tspan><tspan x="112.218" y="245.61" display="inline" fill="#F78F3A" font-family="'TempusSansITC'" font-size="48" rotate="139.323">s</tspan><tspan x="100.668" y="255.853" display="inline" fill="#F78F3A" font-family="'TempusSansITC'" font-size="48" rotate="146.61">e</tspan></text>
<g display="none" opacity="0.49">
	<path display="inline" fill="#B25538" d="M300.238,289.443c-12.559,2.596-24.984,5.856-36.916,10.396
		c-6.009,2.13-11.922,4.538-17.595,7.419c-5.668,2.875-11.128,6.183-16.061,10.146c-4.912,3.956-9.328,8.607-12.363,14.079
		c-1.512,2.729-2.662,5.652-3.325,8.686c-0.673,3.027-0.827,6.175-0.664,9.296c0.357,6.255,2.246,12.376,5.047,18.018
		c2.806,5.656,6.484,10.874,10.597,15.706c8.274,9.657,18.205,17.835,28.671,25.111c10.499,7.266,21.63,13.614,33.084,19.286
		c11.462,5.661,23.264,10.642,35.295,14.975c11.923,4.643,24.127,8.58,36.517,11.911c-12.577-2.553-24.974-6.015-37.185-10.055
		c-12.1-4.357-23.967-9.366-35.502-15.063c-11.526-5.708-22.736-12.1-33.333-19.433c-10.565-7.348-20.613-15.609-29.049-25.453
		c-4.192-4.927-7.964-10.269-10.863-16.11c-2.892-5.826-4.874-12.207-5.249-18.781c-0.171-3.275-0.012-6.594,0.707-9.832
		c0.708-3.233,1.932-6.34,3.526-9.218c3.205-5.771,7.803-10.591,12.853-14.66c5.073-4.075,10.645-7.445,16.406-10.369
		c5.774-2.906,11.742-5.398,17.825-7.534c6.13-2.005,12.358-3.662,18.628-5.075C287.559,291.469,293.885,290.334,300.238,289.443z"
		/>
</g>
<g display="none">
	<path display="inline" fill="#B35537" d="M300.113,289.451c-11.785,3.673-23.539,7.487-35.002,12.037
		c-5.742,2.242-11.408,4.688-16.874,7.523c-5.455,2.843-10.737,6.071-15.442,10.023c-4.688,3.936-8.793,8.693-11.289,14.294
		c-1.25,2.788-2.088,5.758-2.482,8.788c-0.381,3.034-0.403,6.116-0.11,9.165c0.589,6.107,2.479,12.046,5.163,17.563
		c2.685,5.528,6.154,10.656,10.031,15.428c7.799,9.538,17.188,17.684,27.147,24.919c9.987,7.229,20.624,13.54,31.6,19.153
		c10.983,5.61,22.33,10.5,33.907,14.75c11.546,4.337,23.348,8.017,35.34,10.954c-12.042-2.727-23.919-6.201-35.563-10.344
		c-11.607-4.244-22.973-9.155-33.983-14.775c-11.002-5.626-21.666-11.953-31.687-19.205c-9.994-7.261-19.421-15.438-27.272-25.037
		c-3.902-4.803-7.399-9.971-10.112-15.556c-2.71-5.572-4.627-11.586-5.225-17.786c-0.297-3.095-0.276-6.224,0.113-9.314
		c0.401-3.092,1.258-6.125,2.533-8.971c2.549-5.718,6.727-10.55,11.466-14.528c4.758-3.997,10.079-7.246,15.563-10.104
		c5.495-2.851,11.181-5.306,16.938-7.553C276.43,296.479,288.266,292.917,300.113,289.451z"/>
</g>
<g display="none">
	<path display="inline" fill="#B35537" d="M300.228,289.489c-12.317,2.943-24.542,6.346-36.399,10.759
		c-5.938,2.17-11.782,4.61-17.403,7.495c-5.61,2.889-11.02,6.221-15.83,10.297c-4.789,4.064-8.984,8.957-11.557,14.7
		c-1.29,2.858-2.16,5.903-2.564,9.013c-0.394,3.114-0.399,6.275-0.037,9.397c0.717,6.254,2.855,12.289,5.794,17.853
		c2.944,5.577,6.669,10.723,10.792,15.499c8.286,9.55,18.096,17.686,28.433,24.948c10.366,7.251,21.342,13.613,32.646,19.296
		c11.309,5.679,22.962,10.667,34.848,15.011c11.852,4.437,23.957,8.224,36.262,11.236c-12.355-2.801-24.536-6.383-36.485-10.624
		c-11.913-4.342-23.585-9.347-34.919-15.035c-11.328-5.695-22.33-12.071-32.727-19.345c-10.369-7.286-20.217-15.449-28.553-25.058
		c-4.148-4.806-7.901-9.988-10.875-15.621c-2.968-5.62-5.138-11.732-5.866-18.086c-0.368-3.169-0.363-6.388,0.038-9.558
		c0.414-3.172,1.302-6.281,2.617-9.196c2.625-5.858,6.891-10.823,11.731-14.932c4.863-4.121,10.313-7.476,15.956-10.381
		c5.652-2.9,11.521-5.351,17.478-7.527C275.563,295.379,287.863,292.222,300.228,289.489z"/>
</g>
<g display="none">
	<path display="inline" fill="#B65535" d="M473.03,295.964c2.104-0.09,4.195,0.265,6.272,0.551c2.079,0.317,4.148,0.693,6.21,1.106
		c4.123,0.829,8.218,1.805,12.275,2.927c4.057,1.128,8.079,2.398,12.016,3.935c1.967,0.77,3.912,1.608,5.811,2.565
		c1.892,0.966,3.758,2.022,5.457,3.378c0.843,0.682,1.649,1.436,2.341,2.323c0.688,0.88,1.26,1.935,1.445,3.129
		c0.203,1.195-0.092,2.448-0.658,3.458c-0.568,0.968-1.177,1.826-1.832,2.684c-2.625,3.398-5.844,6.249-9.258,8.762
		c-6.87,5.005-14.542,8.721-22.39,11.799c-15.763,6.093-32.365,9.616-49.038,11.866c-16.699,2.214-33.554,3.042-50.38,2.924
		c-8.415-0.063-16.826-0.372-25.224-0.892c-8.395-0.503-16.792-1.298-25.131-2.439c-16.684-2.274-33.195-5.889-49.264-10.943
		c-16.063-5.058-31.699-11.543-46.481-19.646c-7.333-4.149-14.442-8.701-21.186-13.744c-3.369-2.524-6.646-5.173-9.773-7.987
		c-3.117-2.822-6.125-5.788-8.726-9.092c2.686,3.234,5.763,6.112,8.943,8.844c3.191,2.725,6.524,5.277,9.944,7.702
		c6.845,4.847,14.037,9.186,21.431,13.124c14.696,8.057,30.255,14.51,46.243,19.545c15.994,5.03,32.432,8.629,49.046,10.894
		c8.311,1.138,16.655,1.929,25.035,2.431c8.375,0.519,16.763,0.825,25.152,0.889c16.775,0.118,33.571-0.708,50.196-2.912
		c16.598-2.238,33.115-5.75,48.734-11.787c7.774-3.049,15.358-6.729,22.089-11.635c3.344-2.459,6.477-5.242,8.993-8.503
		c0.622-0.811,1.226-1.673,1.723-2.516c0.456-0.82,0.649-1.728,0.497-2.616c-0.313-1.801-1.763-3.365-3.306-4.636
		c-3.173-2.566-6.986-4.403-10.812-6.041c-3.852-1.621-7.817-2.991-11.825-4.221c-4.01-1.225-8.067-2.305-12.159-3.241
		c-2.046-0.466-4.101-0.897-6.166-1.268C477.21,296.339,475.133,295.93,473.03,295.964z"/>
</g>
<g display="none">
	<path display="inline" fill="#B55535" d="M473.324,296.562c1.063-0.069,2.122,0.103,3.17,0.254c1.05,0.165,2.094,0.367,3.133,0.586
		c2.079,0.44,4.143,0.95,6.194,1.501c4.104,1.105,8.164,2.373,12.171,3.796c4.005,1.428,7.96,3.008,11.803,4.847
		c3.824,1.858,7.603,3.916,10.889,6.706c1.604,1.413,3.137,3.046,3.947,5.133c0.399,1.035,0.55,2.197,0.344,3.312
		c-0.188,1.126-0.781,2.116-1.34,3.006c-2.292,3.648-5.326,6.749-8.616,9.464c-6.632,5.416-14.274,9.398-22.107,12.701
		c-7.859,3.286-16.003,5.84-24.245,7.938c-8.249,2.089-16.608,3.71-25.017,4.979c-16.823,2.532-33.827,3.691-50.824,3.935
		c-8.5,0.116-17.003-0.003-25.497-0.33c-8.492-0.293-16.993-0.927-25.424-2.045c-16.868-2.205-33.513-6.188-49.512-11.983
		c-16-5.787-31.351-13.374-45.652-22.594c-14.232-9.319-27.437-20.224-39.054-32.626c11.783,12.245,25.118,22.944,39.426,32.049
		c14.258,9.191,29.562,16.756,45.514,22.524c15.951,5.778,32.547,9.75,49.368,11.949c8.413,1.114,16.875,1.746,25.361,2.039
		c8.482,0.327,16.973,0.446,25.461,0.33c16.971-0.242,33.946-1.4,50.731-3.927c8.389-1.268,16.728-2.885,24.95-4.967
		c8.217-2.092,16.329-4.637,24.148-7.906c7.792-3.284,15.385-7.246,21.937-12.598c3.25-2.681,6.234-5.737,8.469-9.296
		c0.564-0.899,1.083-1.775,1.248-2.767c0.181-0.98,0.053-2.002-0.311-2.946c-0.731-1.906-2.2-3.481-3.751-4.864
		c-3.165-2.764-6.89-4.864-10.665-6.76c-3.797-1.879-7.719-3.508-11.695-4.985c-3.979-1.473-8.017-2.793-12.101-3.951
		c-2.042-0.577-4.097-1.114-6.167-1.582c-1.036-0.232-2.075-0.448-3.122-0.627C475.442,296.693,474.387,296.507,473.324,296.562z"/>
</g>
<g display="none">
	<path display="inline" fill="#B55535" d="M474.192,296.574c1.065-0.063,2.123,0.152,3.166,0.343
		c1.045,0.207,2.08,0.456,3.111,0.723c2.06,0.538,4.1,1.153,6.124,1.813c4.048,1.323,8.038,2.822,11.96,4.483
		c3.92,1.666,7.775,3.493,11.492,5.583c3.698,2.105,7.326,4.426,10.392,7.432c1.502,1.511,2.899,3.224,3.623,5.288
		c0.354,1.024,0.513,2.139,0.353,3.227c-0.134,1.089-0.633,2.121-1.184,3.015c-2.176,3.703-5.107,6.894-8.318,9.702
		c-6.476,5.601-14.035,9.772-21.816,13.228c-7.809,3.438-15.927,6.125-24.159,8.33c-8.236,2.202-16.6,3.907-25.015,5.253
		c-16.838,2.677-33.879,3.923-50.915,4.207c-8.521,0.129-17.043-0.009-25.556-0.352c-8.512-0.315-17.027-0.956-25.476-2.093
		c-16.897-2.249-33.569-6.3-49.54-12.271c-15.969-5.961-31.237-13.822-45.286-23.476c-7.014-4.839-13.725-10.118-20.044-15.83
		c-6.308-5.721-12.271-11.844-17.562-18.519c5.336,6.639,11.337,12.718,17.677,18.39c6.352,5.664,13.089,10.892,20.124,15.675
		c14.05,9.599,29.304,17.412,45.253,23.322c15.95,5.921,32.592,9.923,49.454,12.128c8.434,1.114,16.919,1.733,25.424,2.028
		c8.503,0.327,17.014,0.43,25.52,0.304c17.01-0.245,34.025-1.449,50.836-4.083c8.401-1.324,16.75-3.006,24.972-5.184
		c8.217-2.181,16.319-4.842,24.107-8.25c7.761-3.425,15.297-7.563,21.738-13.109c3.193-2.78,6.106-5.939,8.26-9.586
		c0.563-0.912,1.009-1.841,1.145-2.88c0.153-1.023,0.008-2.077-0.329-3.061c-0.69-1.979-2.048-3.669-3.52-5.171
		c-3.007-2.988-6.606-5.328-10.279-7.449c-3.693-2.107-7.531-3.957-11.436-5.646c-3.907-1.685-7.885-3.208-11.922-4.557
		c-2.019-0.672-4.053-1.3-6.108-1.851c-1.028-0.274-2.062-0.529-3.104-0.743C476.313,296.74,475.259,296.518,474.192,296.574z"/>
</g>
<g display="none">
	<path display="inline" fill="#B55535" d="M474.317,296.601c1.076-0.06,2.139,0.192,3.184,0.416
		c1.047,0.242,2.082,0.529,3.111,0.836c2.058,0.617,4.089,1.32,6.103,2.067c4.025,1.5,7.982,3.184,11.86,5.034
		c3.875,1.854,7.677,3.875,11.324,6.154c3.63,2.293,7.17,4.809,10.136,7.963c1.457,1.583,2.781,3.36,3.516,5.43
		c0.36,1.03,0.548,2.139,0.45,3.239c-0.086,1.099-0.474,2.173-1.027,3.101c-2.105,3.783-4.986,7.07-8.17,9.963
		c-6.416,5.779-13.988,10.089-21.794,13.659c-7.835,3.556-16.004,6.324-24.291,8.598c-8.293,2.268-16.72,4.02-25.202,5.397
		c-16.973,2.741-34.159,3.99-51.338,4.241c-8.592,0.12-17.186-0.016-25.771-0.376c-8.583-0.337-17.165-0.99-25.689-2.08
		c-17.046-2.167-33.917-5.988-50.078-11.873c-16.148-5.879-31.588-13.835-45.45-24.026c-13.789-10.234-26.113-22.643-35.311-37.177
		c9.298,14.471,21.694,26.771,35.521,36.892c13.833,10.169,29.242,18.11,45.362,23.979c16.133,5.875,32.978,9.691,50.001,11.854
		c8.516,1.089,17.079,1.741,25.66,2.078c8.578,0.36,17.166,0.496,25.75,0.376c17.165-0.251,34.335-1.499,51.287-4.237
		c8.472-1.376,16.887-3.125,25.165-5.389c8.272-2.27,16.426-5.033,24.238-8.579c7.783-3.559,15.328-7.856,21.702-13.6
		c3.163-2.872,6.02-6.135,8.099-9.871c0.544-0.915,0.899-1.913,0.984-2.96c0.093-1.043-0.085-2.1-0.432-3.093
		c-0.704-1.998-2.009-3.739-3.436-5.312c-2.908-3.136-6.417-5.669-10.02-7.978c-3.622-2.298-7.403-4.34-11.262-6.219
		c-3.86-1.874-7.804-3.583-11.816-5.109c-2.007-0.76-4.032-1.475-6.084-2.105c-1.026-0.314-2.059-0.608-3.104-0.856
		C476.453,296.808,475.394,296.548,474.317,296.601z"/>
</g>
<g display="none" opacity="0.49">
	<path display="inline" fill="#B25538" d="M300.238,289.443c-12.559,2.596-24.984,5.856-36.916,10.396
		c-6.009,2.13-11.922,4.538-17.595,7.419c-5.668,2.875-11.128,6.183-16.061,10.146c-4.912,3.956-9.328,8.607-12.363,14.079
		c-1.512,2.729-2.662,5.652-3.325,8.686c-0.673,3.027-0.827,6.175-0.664,9.296c0.357,6.255,2.246,12.376,5.047,18.018
		c2.806,5.656,6.484,10.874,10.597,15.706c8.274,9.657,18.205,17.835,28.671,25.111c10.499,7.266,21.63,13.614,33.084,19.286
		c11.462,5.661,23.264,10.642,35.295,14.975c11.923,4.643,24.127,8.58,36.517,11.911c-12.577-2.553-24.974-6.015-37.185-10.055
		c-12.1-4.357-23.967-9.366-35.502-15.063c-11.526-5.708-22.736-12.1-33.333-19.433c-10.565-7.348-20.613-15.609-29.049-25.453
		c-4.192-4.927-7.964-10.269-10.863-16.11c-2.892-5.826-4.874-12.207-5.249-18.781c-0.171-3.275-0.012-6.594,0.707-9.832
		c0.708-3.233,1.932-6.34,3.526-9.218c3.205-5.771,7.803-10.591,12.853-14.66c5.073-4.075,10.645-7.445,16.406-10.369
		c5.774-2.906,11.742-5.398,17.825-7.534c6.13-2.005,12.358-3.662,18.628-5.075C287.559,291.469,293.885,290.334,300.238,289.443z"
		/>
</g>
<g display="none">
	<path display="inline" fill="#B35537" d="M300.113,289.451c-11.785,3.673-23.539,7.487-35.002,12.037
		c-5.742,2.242-11.408,4.688-16.874,7.523c-5.455,2.843-10.737,6.071-15.442,10.023c-4.688,3.936-8.793,8.693-11.289,14.294
		c-1.25,2.788-2.088,5.758-2.482,8.788c-0.381,3.034-0.403,6.116-0.11,9.165c0.589,6.107,2.479,12.046,5.163,17.563
		c2.685,5.528,6.154,10.656,10.031,15.428c7.799,9.538,17.188,17.684,27.147,24.919c9.987,7.229,20.624,13.54,31.6,19.153
		c10.983,5.61,22.33,10.5,33.907,14.75c11.546,4.337,23.348,8.017,35.34,10.954c-12.042-2.727-23.919-6.201-35.563-10.344
		c-11.607-4.244-22.973-9.155-33.983-14.775c-11.002-5.626-21.666-11.953-31.687-19.205c-9.994-7.261-19.421-15.438-27.272-25.037
		c-3.902-4.803-7.399-9.971-10.112-15.556c-2.71-5.572-4.627-11.586-5.225-17.786c-0.297-3.095-0.276-6.224,0.113-9.314
		c0.401-3.092,1.258-6.125,2.533-8.971c2.549-5.718,6.727-10.55,11.466-14.528c4.758-3.997,10.079-7.246,15.563-10.104
		c5.495-2.851,11.181-5.306,16.938-7.553C276.43,296.479,288.266,292.917,300.113,289.451z"/>
</g>
<g display="none">
	<path display="inline" fill="#B35537" d="M300.228,289.489c-12.317,2.943-24.542,6.346-36.399,10.759
		c-5.938,2.17-11.782,4.61-17.403,7.495c-5.61,2.889-11.02,6.221-15.83,10.297c-4.789,4.064-8.984,8.957-11.557,14.7
		c-1.29,2.858-2.16,5.903-2.564,9.013c-0.394,3.114-0.399,6.275-0.037,9.397c0.717,6.254,2.855,12.289,5.794,17.853
		c2.944,5.577,6.669,10.723,10.792,15.499c8.286,9.55,18.096,17.686,28.433,24.948c10.366,7.251,21.342,13.613,32.646,19.296
		c11.309,5.679,22.962,10.667,34.848,15.011c11.852,4.437,23.957,8.224,36.262,11.236c-12.355-2.801-24.536-6.383-36.485-10.624
		c-11.913-4.342-23.585-9.347-34.919-15.035c-11.328-5.695-22.33-12.071-32.727-19.345c-10.369-7.286-20.217-15.449-28.553-25.058
		c-4.148-4.806-7.901-9.988-10.875-15.621c-2.968-5.62-5.138-11.732-5.866-18.086c-0.368-3.169-0.363-6.388,0.038-9.558
		c0.414-3.172,1.302-6.281,2.617-9.196c2.625-5.858,6.891-10.823,11.731-14.932c4.863-4.121,10.313-7.476,15.956-10.381
		c5.652-2.9,11.521-5.351,17.478-7.527C275.563,295.379,287.863,292.222,300.228,289.489z"/>
</g>
<g display="none">
	<path display="inline" fill="#B65535" d="M473.03,295.964c2.104-0.09,4.195,0.265,6.272,0.551c2.079,0.317,4.148,0.693,6.21,1.106
		c4.123,0.829,8.218,1.805,12.275,2.927c4.057,1.128,8.079,2.398,12.016,3.935c1.967,0.77,3.912,1.608,5.811,2.565
		c1.892,0.966,3.758,2.022,5.457,3.378c0.843,0.682,1.649,1.436,2.341,2.323c0.688,0.88,1.26,1.935,1.445,3.129
		c0.203,1.195-0.092,2.448-0.658,3.458c-0.568,0.968-1.177,1.826-1.832,2.684c-2.625,3.398-5.844,6.249-9.258,8.762
		c-6.87,5.005-14.542,8.721-22.39,11.799c-15.763,6.093-32.365,9.616-49.038,11.866c-16.699,2.214-33.554,3.042-50.38,2.924
		c-8.415-0.063-16.826-0.372-25.224-0.892c-8.395-0.503-16.792-1.298-25.131-2.439c-16.684-2.274-33.195-5.889-49.264-10.943
		c-16.063-5.058-31.699-11.543-46.481-19.646c-7.333-4.149-14.442-8.701-21.186-13.744c-3.369-2.524-6.646-5.173-9.773-7.987
		c-3.117-2.822-6.125-5.788-8.726-9.092c2.686,3.234,5.763,6.112,8.943,8.844c3.191,2.725,6.524,5.277,9.944,7.702
		c6.845,4.847,14.037,9.186,21.431,13.124c14.696,8.057,30.255,14.51,46.243,19.545c15.994,5.03,32.432,8.629,49.046,10.894
		c8.311,1.138,16.655,1.929,25.035,2.431c8.375,0.519,16.763,0.825,25.152,0.889c16.775,0.118,33.571-0.708,50.196-2.912
		c16.598-2.238,33.115-5.75,48.734-11.787c7.774-3.049,15.358-6.729,22.089-11.635c3.344-2.459,6.477-5.242,8.993-8.503
		c0.622-0.811,1.226-1.673,1.723-2.516c0.456-0.82,0.649-1.728,0.497-2.616c-0.313-1.801-1.763-3.365-3.306-4.636
		c-3.173-2.566-6.986-4.403-10.812-6.041c-3.852-1.621-7.817-2.991-11.825-4.221c-4.01-1.225-8.067-2.305-12.159-3.241
		c-2.046-0.466-4.101-0.897-6.166-1.268C477.21,296.339,475.133,295.93,473.03,295.964z"/>
</g>
<g display="none">
	<path display="inline" fill="#B55535" d="M473.324,296.562c1.063-0.069,2.122,0.103,3.17,0.254c1.05,0.165,2.094,0.367,3.133,0.586
		c2.079,0.44,4.143,0.95,6.194,1.501c4.104,1.105,8.164,2.373,12.171,3.796c4.005,1.428,7.96,3.008,11.803,4.847
		c3.824,1.858,7.603,3.916,10.889,6.706c1.604,1.413,3.137,3.046,3.947,5.133c0.399,1.035,0.55,2.197,0.344,3.312
		c-0.188,1.126-0.781,2.116-1.34,3.006c-2.292,3.648-5.326,6.749-8.616,9.464c-6.632,5.416-14.274,9.398-22.107,12.701
		c-7.859,3.286-16.003,5.84-24.245,7.938c-8.249,2.089-16.608,3.71-25.017,4.979c-16.823,2.532-33.827,3.691-50.824,3.935
		c-8.5,0.116-17.003-0.003-25.497-0.33c-8.492-0.293-16.993-0.927-25.424-2.045c-16.868-2.205-33.513-6.188-49.512-11.983
		c-16-5.787-31.351-13.374-45.652-22.594c-14.232-9.319-27.437-20.224-39.054-32.626c11.783,12.245,25.118,22.944,39.426,32.049
		c14.258,9.191,29.562,16.756,45.514,22.524c15.951,5.778,32.547,9.75,49.368,11.949c8.413,1.114,16.875,1.746,25.361,2.039
		c8.482,0.327,16.973,0.446,25.461,0.33c16.971-0.242,33.946-1.4,50.731-3.927c8.389-1.268,16.728-2.885,24.95-4.967
		c8.217-2.092,16.329-4.637,24.148-7.906c7.792-3.284,15.385-7.246,21.937-12.598c3.25-2.681,6.234-5.737,8.469-9.296
		c0.564-0.899,1.083-1.775,1.248-2.767c0.181-0.98,0.053-2.002-0.311-2.946c-0.731-1.906-2.2-3.481-3.751-4.864
		c-3.165-2.764-6.89-4.864-10.665-6.76c-3.797-1.879-7.719-3.508-11.695-4.985c-3.979-1.473-8.017-2.793-12.101-3.951
		c-2.042-0.577-4.097-1.114-6.167-1.582c-1.036-0.232-2.075-0.448-3.122-0.627C475.442,296.693,474.387,296.507,473.324,296.562z"/>
</g>
<g display="none">
	<path display="inline" fill="#B55535" d="M474.192,296.574c1.065-0.063,2.123,0.152,3.166,0.343
		c1.045,0.207,2.08,0.456,3.111,0.723c2.06,0.538,4.1,1.153,6.124,1.813c4.048,1.323,8.038,2.822,11.96,4.483
		c3.92,1.666,7.775,3.493,11.492,5.583c3.698,2.105,7.326,4.426,10.392,7.432c1.502,1.511,2.899,3.224,3.623,5.288
		c0.354,1.024,0.513,2.139,0.353,3.227c-0.134,1.089-0.633,2.121-1.184,3.015c-2.176,3.703-5.107,6.894-8.318,9.702
		c-6.476,5.601-14.035,9.772-21.816,13.228c-7.809,3.438-15.927,6.125-24.159,8.33c-8.236,2.202-16.6,3.907-25.015,5.253
		c-16.838,2.677-33.879,3.923-50.915,4.207c-8.521,0.129-17.043-0.009-25.556-0.352c-8.512-0.315-17.027-0.956-25.476-2.093
		c-16.897-2.249-33.569-6.3-49.54-12.271c-15.969-5.961-31.237-13.822-45.286-23.476c-7.014-4.839-13.725-10.118-20.044-15.83
		c-6.308-5.721-12.271-11.844-17.562-18.519c5.336,6.639,11.337,12.718,17.677,18.39c6.352,5.664,13.089,10.892,20.124,15.675
		c14.05,9.599,29.304,17.412,45.253,23.322c15.95,5.921,32.592,9.923,49.454,12.128c8.434,1.114,16.919,1.733,25.424,2.028
		c8.503,0.327,17.014,0.43,25.52,0.304c17.01-0.245,34.025-1.449,50.836-4.083c8.401-1.324,16.75-3.006,24.972-5.184
		c8.217-2.181,16.319-4.842,24.107-8.25c7.761-3.425,15.297-7.563,21.738-13.109c3.193-2.78,6.106-5.939,8.26-9.586
		c0.563-0.912,1.009-1.841,1.145-2.88c0.153-1.023,0.008-2.077-0.329-3.061c-0.69-1.979-2.048-3.669-3.52-5.171
		c-3.007-2.988-6.606-5.328-10.279-7.449c-3.693-2.107-7.531-3.957-11.436-5.646c-3.907-1.685-7.885-3.208-11.922-4.557
		c-2.019-0.672-4.053-1.3-6.108-1.851c-1.028-0.274-2.062-0.529-3.104-0.743C476.313,296.74,475.259,296.518,474.192,296.574z"/>
</g>
<g display="none">
	<path display="inline" fill="#B55535" d="M474.317,296.601c1.076-0.06,2.139,0.192,3.184,0.416
		c1.047,0.242,2.082,0.529,3.111,0.836c2.058,0.617,4.089,1.32,6.103,2.067c4.025,1.5,7.982,3.184,11.86,5.034
		c3.875,1.854,7.677,3.875,11.324,6.154c3.63,2.293,7.17,4.809,10.136,7.963c1.457,1.583,2.781,3.36,3.516,5.43
		c0.36,1.03,0.548,2.139,0.45,3.239c-0.086,1.099-0.474,2.173-1.027,3.101c-2.105,3.783-4.986,7.07-8.17,9.963
		c-6.416,5.779-13.988,10.089-21.794,13.659c-7.835,3.556-16.004,6.324-24.291,8.598c-8.293,2.268-16.72,4.02-25.202,5.397
		c-16.973,2.741-34.159,3.99-51.338,4.241c-8.592,0.12-17.186-0.016-25.771-0.376c-8.583-0.337-17.165-0.99-25.689-2.08
		c-17.046-2.167-33.917-5.988-50.078-11.873c-16.148-5.879-31.588-13.835-45.45-24.026c-13.789-10.234-26.113-22.643-35.311-37.177
		c9.298,14.471,21.694,26.771,35.521,36.892c13.833,10.169,29.242,18.11,45.362,23.979c16.133,5.875,32.978,9.691,50.001,11.854
		c8.516,1.089,17.079,1.741,25.66,2.078c8.578,0.36,17.166,0.496,25.75,0.376c17.165-0.251,34.335-1.499,51.287-4.237
		c8.472-1.376,16.887-3.125,25.165-5.389c8.272-2.27,16.426-5.033,24.238-8.579c7.783-3.559,15.328-7.856,21.702-13.6
		c3.163-2.872,6.02-6.135,8.099-9.871c0.544-0.915,0.899-1.913,0.984-2.96c0.093-1.043-0.085-2.1-0.432-3.093
		c-0.704-1.998-2.009-3.739-3.436-5.312c-2.908-3.136-6.417-5.669-10.02-7.978c-3.622-2.298-7.403-4.34-11.262-6.219
		c-3.86-1.874-7.804-3.583-11.816-5.109c-2.007-0.76-4.032-1.475-6.084-2.105c-1.026-0.314-2.059-0.608-3.104-0.856
		C476.453,296.808,475.394,296.548,474.317,296.601z"/>
</g>
<polygon fill="#05595E" points="136.42,387.679 89.089,377.854 134.681,361.793 "/>
<polygon fill="#03887C" points="140.589,386.206 97.936,363.46 146.206,360.881 "/>
<g>
	<g>
		<path fill="#73B4AB" d="M199.364,339.123c-4.784-18.409-23.286-29.674-41.332-25.168c-16.718,4.168-28.588,20.528-26.467,37.54
			c-0.083,3.953-0.941,16.417-8.125,27.324c-9.021,13.708-36.936,31.678-36.936,31.678s36.157-11.749,47.413-13.098
			c11.246-1.346,21.26-3.608,32.542-8.372c11.207-4.742,15.65-8.679,17.357-10.738C196.687,369.525,203.445,354.85,199.364,339.123z
			"/>
	</g>
</g>
<path fill="#05595E" d="M175.316,333.581c0.415,2.871-1.462,5.522-4.195,5.914c-2.725,0.394-5.274-1.618-5.694-4.492
	c-0.413-2.871,1.47-5.518,4.203-5.91C172.358,328.693,174.905,330.702,175.316,333.581z"/>
<path fill="#E97424" d="M194.213,329.806l25.952-0.431l-20.794,15.539c0,0-2.01-5.888-2.678-7.848
	C196.071,335.252,194.213,329.806,194.213,329.806z"/>
<ellipse display="none" fill="none" cx="374.484" cy="291.5" rx="295.5" ry="178"/>
<text transform="matrix(0.6179 -0.7862 0.7862 0.6179 93.6167 232.7778)" display="none"><tspan x="0" y="0" display="inline" fill="#FFCF35" font-family="'TempusSansITC'" font-size="80">P</tspan><tspan x="41.565" y="0.375" display="inline" fill="#FFCF35" font-family="'TempusSansITC'" font-size="80" rotate="11.343">a</tspan><tspan x="74.126" y="7.101" display="inline" fill="#FFCF35" font-family="'TempusSansITC'" font-size="80" rotate="18.487">r</tspan><tspan x="98.919" y="15.154" display="inline" fill="#FFCF35" font-family="'TempusSansITC'" font-size="80" rotate="24.5">a</tspan><tspan x="129.435" y="28.826" display="inline" fill="#FFCF35" font-family="'TempusSansITC'" font-size="80" rotate="30.81">d</tspan><tspan x="164.198" y="50.021" display="inline" fill="#FFCF35" font-family="'TempusSansITC'" font-size="80" rotate="35.335">i</tspan><tspan x="180.405" y="61.376" display="inline" fill="#FFCF35" font-family="'TempusSansITC'" font-size="80" rotate="38.545">s</tspan><tspan x="201.19" y="77.704" display="inline" fill="#FFCF35" font-family="'TempusSansITC'" font-size="80" rotate="42.573">e</tspan><tspan x="227.378" y="102.065" display="inline" fill="#FFCF35" font-family="'TempusSansITC'" font-size="80" rotate="45.976"> </tspan><tspan x="241.528" y="115.269" display="inline" fill="#FFCF35" font-family="'TempusSansITC'" font-size="80" rotate="50.885">N</tspan><tspan x="281.451" y="165.384" display="inline" fill="#FFCF35" font-family="'TempusSansITC'" font-size="80" rotate="56.649">e</tspan><tspan x="300.98" y="195.268" display="inline" fill="#FFCF35" font-family="'TempusSansITC'" font-size="80" rotate="60.431">s</tspan><tspan x="314.112" y="218.33" display="inline" fill="#FFCF35" font-family="'TempusSansITC'" font-size="80" rotate="63.871">t</tspan><tspan x="326.084" y="242.915" display="inline" fill="#FFCF35" font-family="'TempusSansITC'" font-size="80" rotate="67.047"> </tspan><tspan x="334.613" y="260.062" display="inline" fill="#FFCF35" font-family="'TempusSansITC'" font-size="80" rotate="72.922">H</tspan><tspan x="351.84" y="317.025" display="inline" fill="#FFCF35" font-family="'TempusSansITC'" font-size="80" rotate="82.195">o</tspan><tspan x="358.181" y="361.157" display="inline" fill="#FFCF35" font-family="'TempusSansITC'" font-size="80" rotate="92.281">u</tspan><tspan x="356.044" y="403.636" display="inline" fill="#FFCF35" font-family="'TempusSansITC'" font-size="80" rotate="102.514">s</tspan><tspan x="351.444" y="428.089" display="inline" fill="#FFCF35" font-family="'TempusSansITC'" font-size="80" rotate="113.826">e</tspan></text>
<ellipse display="none" fill="none" cx="373.984" cy="311" rx="295.5" ry="178"/>
<g display="none">
</g>
<ellipse display="none" fill="none" cx="375.984" cy="350.5" rx="264" ry="235.5"/>
<g display="none">
	
		<text transform="matrix(0.4016 -0.5429 0.8039 0.5948 143.6045 237.0063)" display="inline" fill="#C7242C" font-family="'TektonPro-Bold'" font-size="105.8427">P</text>
	
		<text transform="matrix(0.4756 -0.4794 0.7099 0.7043 165.938 206.8682)" display="inline" fill="#C7242C" font-family="'TektonPro-Bold'" font-size="105.8427">a</text>
	
		<text transform="matrix(0.5272 -0.4219 0.6248 0.7808 189.1875 183.6045)" display="inline" fill="#C7242C" font-family="'TektonPro-Bold'" font-size="105.8427">r</text>
	
		<text transform="matrix(0.5706 -0.3611 0.5347 0.845 208.6841 167.6055)" display="inline" fill="#C7242C" font-family="'TektonPro-Bold'" font-size="105.8427">a</text>
	
		<text transform="matrix(0.6112 -0.2871 0.4252 0.9051 236.2554 149.9268)" display="inline" fill="#C7242C" font-family="'TektonPro-Bold'" font-size="105.8427">d</text>
	
		<text transform="matrix(0.6343 -0.2317 0.3431 0.9393 268.791 135.1084)" display="inline" fill="#C7242C" font-family="'TektonPro-Bold'" font-size="105.8427">i</text>
	
		<text transform="matrix(0.6517 -0.1769 0.2619 0.9651 281.7173 129.8599)" display="inline" fill="#C7242C" font-family="'TektonPro-Bold'" font-size="105.8427">s</text>
	
		<text transform="matrix(0.6675 -0.1022 0.1514 0.9885 314.4751 120.9351)" display="inline" fill="#C7242C" font-family="'TektonPro-Bold'" font-size="105.8427">e</text>
	
		<text transform="matrix(0.6732 -0.0523 0.0775 0.997 346.2856 116.4014)" display="inline" fill="#C7242C" font-family="'TektonPro-Bold'" font-size="105.8427"> </text>
	
		<text transform="matrix(0.6752 0.0098 -0.0145 0.9999 357.5547 114.7031)" display="inline" fill="#C7242C" font-family="'TektonPro-Bold'" font-size="105.8427">N</text>
	
		<text transform="matrix(0.6692 0.0905 -0.1341 0.991 399.334 115.4321)" display="inline" fill="#C7242C" font-family="'TektonPro-Bold'" font-size="105.8427">e</text>
	
		<text transform="matrix(0.6547 0.1653 -0.2447 0.9696 430.6191 119.4814)" display="inline" fill="#C7242C" font-family="'TektonPro-Bold'" font-size="105.8427">s</text>
	
		<text transform="matrix(0.6314 0.2395 -0.3547 0.935 463.5049 127.7241)" display="inline" fill="#C7242C" font-family="'TektonPro-Bold'" font-size="105.8427">t</text>
	
		<text transform="matrix(0.6105 0.2885 -0.4272 0.9041 493.5 139.4771)" display="inline" fill="#C7242C" font-family="'TektonPro-Bold'" font-size="105.8427"> </text>
	
		<text transform="matrix(0.5788 0.3478 -0.5151 0.8571 504.126 143.5234)" display="inline" fill="#C7242C" font-family="'TektonPro-Bold'" font-size="105.8427">H</text>
	
		<text transform="matrix(0.5235 0.4265 -0.6316 0.7753 540.3369 165.4595)" display="inline" fill="#C7242C" font-family="'TektonPro-Bold'" font-size="105.8427">o</text>
	
		<text transform="matrix(0.4647 0.4899 -0.7255 0.6882 565.9707 186.1992)" display="inline" fill="#C7242C" font-family="'TektonPro-Bold'" font-size="105.8427">u</text>
	
		<text transform="matrix(0.3944 0.5481 -0.8117 0.5841 587.835 208.894)" display="inline" fill="#C7242C" font-family="'TektonPro-Bold'" font-size="105.8427">s</text>
	
		<text transform="matrix(0.3136 0.598 -0.8856 0.4645 607.4717 236.0107)" display="inline" fill="#C7242C" font-family="'TektonPro-Bold'" font-size="105.8427">e</text>
	
		<text transform="matrix(0.2539 0.6257 -0.9266 0.3759 621.8564 264.3252)" display="inline" fill="#C7242C" font-family="'TektonPro-Bold'" font-size="105.8427"> </text>
</g>
<path display="none" fill="#58B947" d="M212.264,309.88c-3.769,0.621-6.789,3.041-8.334,6.235c2.49,2.526,6.126,3.849,9.896,3.228
	c3.767-0.622,6.788-3.042,8.333-6.235C219.667,310.579,216.032,309.259,212.264,309.88z"/>
</svg>
